<ttFont>
          <CharString index="0">
            -104 callsubr
            -99 -46 -47 -86 hvcurveto
            -38 callgsubr
            return
          </CharString>
          <CharString index="1">
            -106 callgsubr
            51 -13 callsubr
            return
          </CharString>
          <CharString index="2">
            -107 callgsubr
            422 vlineto
            return
          </CharString>
          <CharString index="3">
            hhcurveto
            -56 -15 -64 callsubr
            15 25 56 -92 callsubr
            return
          </CharString>
          <CharString index="4">
            -72 284 hlineto
            -106 callsubr
            return
          </CharString>
          <CharString index="5">
            175 rmoveto
            -6 -25 -34 -99 callgsubr
            return
          </CharString>
          <CharString index="6">
            rmoveto
            -99 callsubr
            50 hlineto
            return
          </CharString>
          <CharString index="7">
            hlineto
            -98 callgsubr
            return
          </CharString>
          <CharString index="8">
            -14 callgsubr
            156 vlineto
            36 12 21 48 vhcurveto
            return
          </CharString>
          <CharString index="9">
            65 -2 callgsubr
            -93 -87 callsubr
            -91 return
          </CharString>
          <CharString index="10">
            -19 callsubr
            -1 callgsubr
            114 vlineto
            35 10 22 54 vhcurveto
            64 hlineto
            return
          </CharString>
          <CharString index="11">
            270 callgsubr
            -96 callgsubr
            return
          </CharString>
          <CharString index="12">
            hhcurveto
            -88 -38 35 70 hvcurveto
            57 vlineto
            79 2 46 -84 callsubr
            return
          </CharString>
          <CharString index="13">
            -86 callgsubr
            53 13 -26 -35 vhcurveto
            -135 85 return
          </CharString>
          <CharString index="14">
            8 callgsubr
            -137 vlineto
            -72 callgsubr
            return
          </CharString>
          <CharString index="15">
            7 9 -1 -1 5 vhcurveto
            73 vlineto
            2 -5 5 callgsubr
            return
          </CharString>
          <CharString index="16">
            2 callsubr
            -82 -264 vlineto
            -80 callgsubr
            return
          </CharString>
          <CharString index="17">
            78 vlineto
            -10 -33 -83 callsubr
            return
          </CharString>
          <CharString index="18">
            1 9 1 9 10 -75 callsubr
            return
          </CharString>
          <CharString index="19">
            -3 17 21 -3 23 hhcurveto
            102 47 50 98 hvcurveto
            122 vlineto
            42 -10 21 0 vhcurveto
            return
          </CharString>
          <CharString index="20">
            -72 92 -78 callgsubr
            return
          </CharString>
          <CharString index="21">
            rmoveto
            107 vlineto
            47 23 32 57 57 23 -32 -47 vhcurveto
            -107 vlineto
            -250 -169 rmoveto
            -102 60 -54 134 62 36 8 8 29 vhcurveto
            84 vlineto
            -8 -26 -43 -10 -52 hhcurveto
            -82 -28 27 52 hvcurveto
            89 248 182 vlineto
            91 -49 66 269 callsubr
            -66 -91 vhcurveto
            endchar
          </CharString>
          <CharString index="22">
            -82 callsubr
            146 -67 callgsubr
            return
          </CharString>
          <CharString index="23">
            36 81 vvcurveto
            75 vlineto
            40 -7 23 0 vhcurveto
            return
          </CharString>
          <CharString index="24">
            -33 -97 callgsubr
            return
          </CharString>
          <CharString index="25">
            -87 44 -47 98 98 43 47 87 vhcurveto
            return
          </CharString>
          <CharString index="26">
            -104 51 -57 124 25 20 2 3 16 vhcurveto
            -89 callgsubr
          </CharString>
          <CharString index="27">
            -122 84 412 vlineto
            0 28 10 34 54 15 -24 -36 vhcurveto
            -160 vlineto
            -39 -14 -22 -56 2 vhcurveto
            -79 vlineto
            2 9 110 callgsubr
          </CharString>
          <CharString index="28">
            -72 269 199 callgsubr
            -69 callgsubr
            return
          </CharString>
          <CharString index="29">
            rmoveto
            -369 vlineto
            172 callgsubr
            58 70 94 vhcurveto
            369 vlineto
            95 -58 69 -123 -123 -57 -69 -95 vhcurveto
            269 -3 rmoveto
            -363 vlineto
            -50 -25 -33 -64 -63 -25 34 49 vhcurveto
            363 vlineto
            50 25 34 63 64 25 -34 -50 vhcurveto
            return
          </CharString>
          <CharString index="30">
            -19 -28 -20 hvcurveto
            25 -17 -35 23 -57 hhcurveto
            -100 -48 -53 -87 hvcurveto
            return
          </CharString>
          <CharString index="31">
            290 callgsubr
            -24 -37 251 callgsubr
            -36 -10 -23 -45 -1 vhcurveto
            -6 -7 1 -4 hhcurveto
            -79 vlineto
            -1 5 9 -1 9 -5 callgsubr
            -47 47 -98 return
          </CharString>
          <CharString index="32">
            vvcurveto
            -71 callsubr
            return
          </CharString>
          <CharString index="33">
            10 callsubr
            74 vlineto
            -88 callsubr
            274 -90 hlineto
            3 -16 -28 5 -30 hhcurveto
            -104 -35 -49 236 callgsubr
            -87 38 -47 104 34 22 5 4 15 vhcurveto
            -128 83 -16 callsubr
          </CharString>
          <CharString index="34">
            86 -43 48 -99 -100 -44 -48 -86 vhcurveto
            -55 vlineto
            -50 12 -31 27 -16 vhcurveto
            -41 -16 -16 -35 -48 vvcurveto
            -87 346 callgsubr
            97 31 24 4 4 13 vhcurveto
            -59 81 237 -81 -103 vlineto
            -3 -9 -24 -4 -26 hhcurveto
            -52 -15 25 35 hvcurveto
            79 vlineto
            40 9 27 56 vhcurveto
            return
          </CharString>
          <CharString index="35">
            -583 139 callgsubr
            return
          </CharString>
          <CharString index="36">
            137 -51 callgsubr
            return
          </CharString>
          <CharString index="37">
            -52 callsubr
            219 vlineto
            38 20 29 61 32 33 -7 -4 14 159 callgsubr
            return
          </CharString>
          <CharString index="38">
            102 hlineto
            129 150 5 1 rlineto
            -106 157 callgsubr
            22 hhcurveto
            56 15 -24 -37 251 callgsubr
            -36 -9 220 callgsubr
            -4 hhcurveto
            -79 vlineto
            -1 4 63 callsubr
            vlineto
            endchar
          </CharString>
          <CharString index="39">
            rmoveto
            -32 vlineto
            -66 30 -36 50 -25 vhcurveto
            81 -42 rlineto
            50 -26 12 -14 -32 vvcurveto
            -18 vlineto
            -41 -22 -25 -86 -46 -41 8 9 -26 vhcurveto
            -85 vlineto
            -8 30 36 -7 287 callgsubr
            96 hvcurveto
            26 vlineto
            62 -34 35 -53 27 vhcurveto
            -84 46 rlineto
            -41 20 -13 15 37 vvcurveto
            20 vlineto
            44 15 23 79 42 43 -9 -9 24 vhcurveto
            84 vlineto
            9 -28 -45 7 -41 hhcurveto
            -130 -49 -51 -93 hvcurveto
            return
          </CharString>
          <CharString index="40">
            -9 -55 -74 callsubr
          </CharString>
          <CharString index="41">
            51 callgsubr
            37 -19 callgsubr
            return
          </CharString>
          <CharString index="42">
            -97 callgsubr
            51 -2 callsubr
          </CharString>
          <CharString index="43">
            25 37 hvcurveto
            171 vlineto
            36 return
          </CharString>
          <CharString index="44">
            212 callgsubr
            99 2 -23 callsubr
            return
          </CharString>
          <CharString index="45">
            vlineto
            -81 callsubr
          </CharString>
          <CharString index="46">
            rmoveto
            165 -139 rlineto
            -39 vlineto
            -4 -13 -25 -6 -39 hhcurveto
            -66 -22 29 41 hvcurveto
            165 46 rmoveto
            -161 135 rlineto
            27 9 24 17 51 hhcurveto
            38 26 -8 -5 13 hvcurveto
            return
          </CharString>
          <CharString index="47">
            -41 callsubr
            121 hlineto
            return
          </CharString>
          <CharString index="48">
            hlineto
            0 12 -32 callsubr
            -121 vlineto
            -45 -18 -28 return
          </CharString>
          <CharString index="49">
            -33 callgsubr
            123 56 70 94 vhcurveto
            523 vlineto
            return
          </CharString>
          <CharString index="50">
            vvcurveto
            -52 callgsubr
            vlineto
            endchar
          </CharString>
          <CharString index="51">
            66 callgsubr
            vlineto
            endchar
          </CharString>
          <CharString index="52">
            -70 callsubr
            93 return
          </CharString>
          <CharString index="53">
            80 vlineto
            -10 -32 -46 -67 callsubr
          </CharString>
          <CharString index="54">
            38 49 hvcurveto
            178 vlineto
            36 return
          </CharString>
          <CharString index="55">
            23 79 hlineto
            -57 -4 callsubr
            return
          </CharString>
          <CharString index="56">
            178 callgsubr
            5 15 21 -76 callsubr
            77 callsubr
            return
          </CharString>
          <CharString index="57">
            rmoveto
            72 hlineto
            53 109 rlineto
            -52 hlineto
            -37 -60 -38 60 rlineto
            -51 hlineto
            return
          </CharString>
          <CharString index="58">
            38 vlineto
            93 -52 38 -77 -28 -18 -6 0 vhcurveto
            -75 vlineto
            0 17 5 20 33 22 -16 -41 vhcurveto
            -33 vlineto
            -41 -15 -28 -64 -64 -15 29 41 vhcurveto
            222 vlineto
            36 13 23 58 vhcurveto
            return
          </CharString>
          <CharString index="59">
            -118 -35 callgsubr
            return
          </CharString>
          <CharString index="60">
            220 callsubr
            23 28 return
          </CharString>
          <CharString index="61">
            -33 -65 callsubr
          </CharString>
          <CharString index="62">
            vlineto
            7 -50 -53 6 -51 hhcurveto
            -121 -52 -61 -86 hvcurveto
            -213 -63 callsubr
            205 vlineto
            43 25 28 63 17 return
          </CharString>
          <CharString index="63">
            rmoveto
            -480 vlineto
            -10 -42 -42 -4 -50 hhcurveto
            -110 -39 33 88 hvcurveto
            32 23 vlineto
            120 56 44 106 hvcurveto
            57 327 callgsubr
            -24 0 vhcurveto
            81 hlineto
            0 -4 21 23 vvcurveto
            39 9 24 155 callgsubr
            return
          </CharString>
          <CharString index="64">
            rmoveto
            -72 253 -89 vlineto
            74 callsubr
            -105 -49 193 callsubr
            -14 1 -13 2 -12 vhcurveto
            -7 -32 -34 -5 -33 hhcurveto
            -69 -41 20 60 hvcurveto
            42 vlineto
            36 249 callsubr
            79 -38 hlineto
            -57 -12 24 35 hvcurveto
            47 259 callsubr
            return
          </CharString>
          <CharString index="65">
            78 vlineto
            -10 -33 -46 callsubr
          </CharString>
          <CharString index="66">
            rmoveto
            -116 -76 callgsubr
            return
          </CharString>
          <CharString index="67">
            rmoveto
            -72 123 78 callsubr
            -127 hlineto
            -33 6 -28 11 -23 vhcurveto
            -8 -40 -44 -7 -43 hhcurveto
            -113 -42 33 88 hvcurveto
            32 24 vlineto
            119 56 44 106 hvcurveto
            57 vlineto
            89 -34 50 -98 -99 -37 -52 -90 -19 4 -23 207 callsubr
            -4 23 22 7 callsubr
            return
          </CharString>
          <CharString index="68">
            1 callsubr
            115 60 133 callgsubr
            vhcurveto
            78 vlineto
            -10 -33 -34 -10 -55 hhcurveto
            -69 -37 24 56 hvcurveto
            101 vlineto
            -5 19 22 -3 24 hhcurveto
            return
          </CharString>
          <CharString index="69">
            139 callgsubr
            hlineto
            endchar
          </CharString>
          <CharString index="70">
            -125 85 -60 137 49 54 7 9 35 vhcurveto
            -54 callsubr
          </CharString>
          <CharString index="71">
            -72 77 -333 -6 callsubr
            return
          </CharString>
          <CharString index="72">
            rmoveto
            -33 callsubr
            147 322 callsubr
            -473 17 callgsubr
            endchar
          </CharString>
          <CharString index="73">
            rmoveto
            -36 -12 -24 -55 -56 -12 24 36 vhcurveto
            112 vlineto
            37 12 23 56 55 12 -23 -37 vhcurveto
            -213 -112 rmoveto
            -92 38 -42 108 108 38 42 92 vhcurveto
            112 vlineto
            87 -38 47 -108 271 callgsubr
            vhcurveto
            endchar
          </CharString>
          <CharString index="74">
            86 -50 44 -107 vhcurveto
            -20 hlineto
            -53 -14 21 34 hvcurveto
            28 316 callsubr
            return
          </CharString>
          <CharString index="75">
            -22 -41 vvcurveto
            return
          </CharString>
          <CharString index="76">
            -28 callgsubr
            24 -4 -3 14 vhcurveto
            176 237 rmoveto
            -803 -72 271 hlineto
            0 12 -22 -41 vvcurveto
            -121 vlineto
            -45 -18 -28 -56 -19 -20 2 3 -17 vhcurveto
            114 -82 -264 vlineto
            -118 75 -53 123 -5 vhcurveto
            -135 -94 rlineto
            -4 vlineto
            114 -11 138 110 rlineto
            78 vlineto
            -7 -23 -38 -4 -27 -74 callsubr
          </CharString>
          <CharString index="77">
            -46 104 134 callgsubr
            vhcurveto
            return
          </CharString>
          <CharString index="78">
            -72 299 -78 -68 hlineto
            -106 261 callgsubr
            -87 53 -40 103 vhcurveto
            7 hlineto
            54 13 -24 -34 hvcurveto
            -38 vlineto
            -37 -15 -22 -58 -26 -26 2 6 -18 vhcurveto
            64 -83 -226 83 87 vlineto
            -5 18 27 -4 36 hhcurveto
            return
          </CharString>
          <CharString index="79">
            158 callsubr
            6 vhcurveto
            73 vlineto
            2 -6 5 callgsubr
            return
          </CharString>
          <CharString index="80">
            0 8 -22 -41 vvcurveto
            -63 78 callgsubr
            return
          </CharString>
          <CharString index="81">
            -99 66 -56 116 59 133 callgsubr
            vhcurveto
            -42 callsubr
          </CharString>
          <CharString index="82">
            19 23 2 20 hhcurveto
            57 11 -23 return
          </CharString>
          <CharString index="83">
            -249 -115 118 vlineto
            250 callgsubr
            -44 -49 -87 -21 4 -27 211 callsubr
            26 20 vvcurveto
            35 8 25 52 53 8 -24 -36 vhcurveto
            return
          </CharString>
          <CharString index="84">
            vhcurveto
            -52 callsubr
            return
          </CharString>
          <CharString index="85">
            13 -26 -35 vhcurveto
            -135 85 return
          </CharString>
          <CharString index="86">
            rmoveto
            -677 308 81 -216 221 188 80 -188 215 216 80 vlineto
            return
          </CharString>
          <CharString index="87">
            hhcurveto
            -55 -34 -19 -28 -20 hvcurveto
            25 -17 -35 23 -57 hhcurveto
            return
          </CharString>
          <CharString index="88">
            12 callgsubr
            -10 return
          </CharString>
          <CharString index="89">
            -75 callgsubr
            846 72 rmoveto
            -1145 -36 callsubr
            415 vlineto
            5 19 27 2 19 hhcurveto
            57 11 -23 -39 hvcurveto
            -82 85 84 vlineto
            81 -38 53 -109 -21 -33 -2 -5 -17 vhcurveto
            94 585 -99 -286 -77 74 vlineto
            0 10 -22 281 callsubr
            -31 -24 3 6 -26 vhcurveto
            -78 vlineto
            -6 24 23 -3 36 201 callgsubr
          </CharString>
          <CharString index="90">
            310 callsubr
            -72 vlineto
            1 6 8 1 6 hhcurveto
            26 9 -15 -31 10 hvcurveto
            35 -111 rlineto
            -28 282 callsubr
            -32 23 75 callsubr
            19 -12 -28 20 hvcurveto
            80 -117 rlineto
            return
          </CharString>
          <CharString index="91">
            583 93 vlineto
            endchar
          </CharString>
          <CharString index="92">
            -16 callgsubr
            93 return
          </CharString>
          <CharString index="93">
            37 callgsubr
            22 182 callsubr
            return
          </CharString>
          <CharString index="94">
            37 13 24 24 hvcurveto
            return
          </CharString>
          <CharString index="95">
            50 52 528 rmoveto
            -384 vlineto
            -103 71 -46 112 90 43 22 18 32 vhcurveto
            306 -90 -246 vlineto
            -6 -9 -29 -11 -38 hhcurveto
            -60 -29 22 51 hvcurveto
            370 vlineto
            47 29 30 79 48 44 -10 -11 33 vhcurveto
            88 vlineto
            9 -28 -48 8 -51 hhcurveto
            -138 -61 -62 -92 hvcurveto
            return
          </CharString>
          <CharString index="96">
            16 callsubr
            93 vlineto
            endchar
          </CharString>
          <CharString index="97">
            -72 520 -437 hlineto
            -4 -12 -23 -6 291 callgsubr
            25 37 hvcurveto
            171 vlineto
            -28 callsubr
            -36 -29 -6 -12 -22 hvcurveto
            5 -34 90 callsubr
            47 -44 98 31 28 6 3 11 vhcurveto
            -73 84 418 vlineto
            4 15 28 3 22 hhcurveto
            56 9 -25 -36 hvcurveto
            return
          </CharString>
          <CharString index="98">
            rmoveto
            -114 149 114 52 callgsubr
            return
          </CharString>
          <CharString index="99">
            hhcurveto
            -109 -7 callsubr
            22 29 63 return
          </CharString>
          <CharString index="100">
            -52 -56 -87 hvcurveto
            -221 -63 callsubr
            213 vlineto
            38 return
          </CharString>
          <CharString index="101">
            hlineto
            15 callsubr
            return
          </CharString>
          <CharString index="102">
            -48 -10 -15 1 1 -5 vhcurveto
            return
          </CharString>
          <CharString index="103">
            -1 -18 20 40 vvcurveto
            return
          </CharString>
          <CharString index="104">
            583 rmoveto
            148 -306 hlineto
            -4 -11 -26 -7 -33 hhcurveto
            -59 -19 26 36 hvcurveto
            return
          </CharString>
          <CharString index="105">
            -13 callsubr
            148 -282 -38 callsubr
          </CharString>
          <CharString index="106">
            -72 284 hlineto
            -106 callgsubr
            return
          </CharString>
          <CharString index="107">
            -89 hlineto
            74 callsubr
            return
          </CharString>
          <CharString index="108">
            -93 callsubr
            153 -337 -70 callgsubr
            121 -255 hlineto
            -99 66 -56 return
          </CharString>
          <CharString index="109">
            94 callsubr
            114 return
          </CharString>
          <CharString index="110">
            rmoveto
            -41 27 -34 49 50 26 34 41 41 -26 33 -50 -49 -27 -33 -41 vhcurveto
            109 hmoveto
            -21 -13 -13 -20 -20 -13 13 21 19 13 14 20 20 13 -14 -19 vhcurveto
            return
          </CharString>
          <CharString index="111">
            57 317 151 rmoveto
            -50 -24 -31 -63 -63 -23 31 50 vhcurveto
            66 vlineto
            50 23 33 63 63 24 -34 -49 vhcurveto
            -172 310 rmoveto
            50 22 30 63 63 22 -31 -49 vhcurveto
            -69 vlineto
            -50 -22 -33 -63 -63 -22 34 49 vhcurveto
            261 69 rmoveto
            95 -53 65 -123 -123 -53 -65 -95 vhcurveto
            -67 vlineto
            -57 20 -42 43 -23 vhcurveto
            -44 -24 -21 -42 -58 vvcurveto
            -64 vlineto
            -94 55 -66 123 123 55 66 94 vhcurveto
            64 vlineto
            58 -21 42 -44 24 vhcurveto
            43 23 20 42 57 vvcurveto
            endchar
          </CharString>
          <CharString index="112">
            rmoveto
            81 hlineto
            57 24 -26 -50 hvcurveto
            -101 vlineto
            -51 -22 -27 -59 vhcurveto
            -81 hlineto
            276 -342 rmoveto
            -107 277 rlineto
            59 21 26 51 71 vvcurveto
            106 vlineto
            93 -57 58 -108 vhcurveto
            -181 -677 92 265 78 hlineto
            97 -265 rlineto
            endchar
          </CharString>
          <CharString index="113">
            -87 44 -47 98 98 43 47 87 vhcurveto
            -46 callgsubr
          </CharString>
          <CharString index="114">
            vvcurveto
            40 8 22 47 49 5 -23 -40 vhcurveto
            -46 vlineto
            -68 -33 -17 -74 vhcurveto
            return
          </CharString>
          <CharString index="115">
            118 hlineto
            297 callgsubr
            323 callsubr
            -23 5 -25 161 callgsubr
            -5 24 22 77 callgsubr
            -116 219 callgsubr
            -91 vlineto
            -82 42 -47 104 104 42 47 82 vhcurveto
            145 return
          </CharString>
          <CharString index="116">
            hhcurveto
            -108 -38 -47 236 callgsubr
            -92 38 -42 108 return
          </CharString>
          <CharString index="117">
            hhcurveto
            -92 -53 32 77 hvcurveto
            return
          </CharString>
          <CharString index="118">
            rmoveto
            26 260 callgsubr
            vlineto
            13 26 29 10 33 hhcurveto
            39 22 -19 -42 hvcurveto
            -431 93 447 vlineto
            86 -54 44 -77 -48 -45 -18 -11 -23 vhcurveto
            return
          </CharString>
          <CharString index="119">
            rmoveto
            87 -50 43 -107 vhcurveto
            -20 hlineto
            -53 -14 22 34 hvcurveto
            22 316 callsubr
            147 153 159 72 -533 248 callsubr
            hlineto
            234 callsubr
            -29 vlineto
            -86 276 callgsubr
            20 hlineto
            58 14 -23 -35 hvcurveto
            -32 vlineto
            -47 -35 -16 -63 -49 -52 7 9 -38 vhcurveto
            -78 vlineto
            -9 40 43 -7 56 hhcurveto
            123 60 48 93 hvcurveto
            -1 212 rmoveto
            100 callsubr
            -39 -11 -22 -28 vhcurveto
            endchar
          </CharString>
          <CharString index="120">
            hlineto
            17 callsubr
            return
          </CharString>
          <CharString index="121">
            -392 -84 callgsubr
            return
          </CharString>
          <CharString index="122">
            1 callgsubr
            -122 84 return
          </CharString>
          <CharString index="123">
            hhcurveto
            43 37 132 callsubr
            return
          </CharString>
          <CharString index="124">
            90 -47 56 -119 -40 -27 -7 -9 -22 vhcurveto
            -77 vlineto
            9 24 27 6 36 hhcurveto
            65 18 -29 -43 hvcurveto
            -164 vlineto
            -44 -18 -29 -65 -43 -27 8 7 -22 vhcurveto
            -77 vlineto
            -8 22 29 -7 42 hhcurveto
            119 48 55 89 hvcurveto
            return
          </CharString>
          <CharString index="125">
            38 37 callsubr
            return
          </CharString>
          <CharString index="126">
            16 callgsubr
            -27 -38 vvcurveto
            return
          </CharString>
          <CharString index="127">
            vlineto
            -81 44 -41 85 -7 vhcurveto
            -132 -168 rlineto
            97 hlineto
            137 175 5 1 rlineto
            -115 83 255 -83 -73 vlineto
            -5 -23 -17 -3 -31 hhcurveto
            -58 -22 25 40 hvcurveto
            130 143 callsubr
          </CharString>
          <CharString index="128">
            583 92 72 vlineto
            endchar
          </CharString>
          <CharString index="129">
            54 callsubr
            73 vmoveto
            -64 hlineto
            -103 -43 -45 -82 hvcurveto
            -91 43 callsubr
            -178 -24 callsubr
            endchar
          </CharString>
          <CharString index="130">
            27 callsubr
            201 vlineto
            197 callgsubr
            return
          </CharString>
          <CharString index="131">
            vlineto
            31 callgsubr
            return
          </CharString>
          <CharString index="132">
            -72 757 -90 -295 -77 84 hlineto
            8 callgsubr
            -146 vlineto
            -45 -25 -26 -59 -21 -33 6 6 -27 vhcurveto
            6 18 3 19 23 vvcurveto
            155 vlineto
            93 -49 49 -114 -120 48 callgsubr
            116 39 31 6 11 24 vhcurveto
            -10 33 62 -14 49 hhcurveto
            107 59 51 96 hvcurveto
            151 vlineto
            42 -8 22 0 vhcurveto
            125 -420 -49 callgsubr
            return
          </CharString>
          <CharString index="133">
            44 22 28 78 43 43 -8 -9 32 vhcurveto
            85 vlineto
            8 -29 -43 7 -47 hhcurveto
            -132 -60 -57 -92 hvcurveto
            return
          </CharString>
          <CharString index="134">
            -101 68 -53 113 50 41 7 8 31 vhcurveto
            -20 callgsubr
            return
          </CharString>
          <CharString index="135">
            54 315 412 rmoveto
            -9 vlineto
            -165 180 rlineto
            165 hlineto
            -463 vmoveto
            -43 -16 -29 -71 -70 -16 29 43 vhcurveto
            81 vlineto
            43 16 29 70 71 16 -29 -43 vhcurveto
            -173 311 rmoveto
            146 -161 rlineto
            -8 -13 -20 -4 -27 hhcurveto
            -70 -16 30 43 hvcurveto
            344 243 rmoveto
            -514 -72 87 -171 hlineto
            -47 17 -36 34 -23 vhcurveto
            -34 -22 -17 -35 -46 vvcurveto
            -85 vlineto
            return
          </CharString>
          <CharString index="136">
            rmoveto
            -72 256 -89 vlineto
            4 -12 -33 7 -40 hhcurveto
            -105 -49 193 callsubr
            -10 1 -9 1 -9 vhcurveto
            -9 -37 -39 -6 -42 hhcurveto
            -113 -42 33 88 hvcurveto
            32 24 vlineto
            119 56 44 106 hvcurveto
            57 vlineto
            89 -34 50 -98 -99 -37 -52 -90 -19 4 -23 207 callsubr
            -4 24 21 7 callsubr
            return
          </CharString>
          <CharString index="137">
            vlineto
            -37 callsubr
          </CharString>
          <CharString index="138">
            hvcurveto
            -281 -72 285 -79 -68 hlineto
            -102 -50 -40 -86 hvcurveto
            -8 vlineto
            -87 52 -40 100 vhcurveto
            24 hlineto
            57 14 -23 -35 hvcurveto
            -31 vlineto
            -39 -22 -21 -58 -32 -26 4 4 -17 vhcurveto
            68 -83 -240 83 96 vlineto
            -4 16 31 -4 36 hhcurveto
            113 44 45 88 hvcurveto
            36 vlineto
            87 -49 43 -107 vhcurveto
            -24 hlineto
            -53 -14 21 33 hvcurveto
            5 vlineto
            34 14 19 53 vhcurveto
            return
          </CharString>
          <CharString index="139">
            rmoveto
            -10 -33 -36 303 callsubr
            113 vlineto
            -6 18 27 -6 36 hhcurveto
            102 45 51 87 hvcurveto
            129 -51 callgsubr
            90 72 -478 -72 302 hlineto
            -17 callgsubr
            -128 vlineto
            -36 -14 -27 -57 -32 -22 6 5 -18 vhcurveto
            110 -84 10 callgsubr
            115 59 49 10 9 29 vhcurveto
            endchar
          </CharString>
          <CharString index="140">
            49 callgsubr
            vlineto
            endchar
          </CharString>
          <CharString index="141">
            20 callgsubr
            -44 vlineto
            -112 74 -45 122 61 73 18 19 40 vhcurveto
            -20 35 45 -8 48 16 callsubr
            92 72 vlineto
            endchar
          </CharString>
          <CharString index="142">
            131 callgsubr
            131 callsubr
            return
          </CharString>
          <CharString index="143">
            rmoveto
            57 callsubr
            -38 -12 -22 -28 vhcurveto
            return
          </CharString>
          <CharString index="144">
            -17 vhcurveto
            20 callgsubr
            return
          </CharString>
          <CharString index="145">
            583 rmoveto
            248 72 -631 -72 77 -333 hlineto
            -87 48 -50 104 34 23 6 3 13 vhcurveto
            -122 174 callsubr
            -84 -294 -75 callgsubr
            endchar
          </CharString>
          <CharString index="146">
            -83 callgsubr
            endchar
          </CharString>
          <CharString index="147">
            rmoveto
            63 -109 rlineto
            55 hlineto
            -40 109 rlineto
            endchar
          </CharString>
          <CharString index="148">
            -72 280 279 callsubr
            -207 vlineto
            27 callsubr
            return
          </CharString>
          <CharString index="149">
            -26 4 7 -28 vhcurveto
            -78 vlineto
            -7 26 24 -4 callgsubr
            51 95 hvcurveto
            157 286 callsubr
            return
          </CharString>
          <CharString index="150">
            169 callgsubr
            145 117 219 callsubr
            return
          </CharString>
          <CharString index="151">
            hhcurveto
            -52 -30 -77 callsubr
            -183 vlineto
            -104 51 -57 124 12 43 1 1 7 vhcurveto
            77 vlineto
            -1 -7 -43 -1 -9 hhcurveto
            -78 -15 38 49 hvcurveto
            178 268 callgsubr
            -133 85 133 vlineto
            38 10 25 50 55 7 -25 -38 vhcurveto
            -40 1 return
          </CharString>
          <CharString index="152">
            64 callsubr
            vlineto
            endchar
          </CharString>
          <CharString index="153">
            70 324 677 -58 callsubr
            return
          </CharString>
          <CharString index="154">
            -8 -24 -36 -7 -41 hhcurveto
            -74 -20 23 48 hvcurveto
            272 vlineto
            48 20 24 74 39 37 -7 -8 24 vhcurveto
            86 vlineto
            7 -27 -33 6 -51 hhcurveto
            -122 -54 -54 -97 hvcurveto
            return
          </CharString>
          <CharString index="155">
            -72 285 -437 hlineto
            -107 callgsubr
            398 vlineto
            5 19 31 2 21 196 callsubr
            return
          </CharString>
          <CharString index="156">
            vlineto
            -171 136 72 callgsubr
            return
          </CharString>
          <CharString index="157">
            rmoveto
            -157 176 rlineto
            17 12 22 11 38 hhcurveto
            65 20 -30 -43 hvcurveto
            -169 -15 rmoveto
            158 -179 rlineto
            -18 -11 -22 -10 -41 hhcurveto
            -65 250 callsubr
            return
          </CharString>
          <CharString index="158">
            68 callgsubr
            -38 return
          </CharString>
          <CharString index="159">
            -81 -46 -46 -73 hvcurveto
            -12 vlineto
            -40 10 -28 34 -14 vhcurveto
            -35 -14 -14 -31 -41 vvcurveto
            -14 vlineto
            -83 54 -44 120 113 58 36 115 3 vhcurveto
            34 23 3 6 22 hvcurveto
            -85 83 255 -83 -94 vlineto
            -6 207 callgsubr
            -59 170 callsubr
            37 15 23 58 vhcurveto
            endchar
          </CharString>
          <CharString index="160">
            rmoveto
            -4 -10 -30 102 callgsubr
            return
          </CharString>
          <CharString index="161">
            171 callsubr
            21 36 vhcurveto
            85 vlineto
            36 9 21 54 vhcurveto
            64 hlineto
            return
          </CharString>
          <CharString index="162">
            21 57 677 rmoveto
            -362 vlineto
            6 79 26 4 41 hhcurveto
            64 18 -25 -51 hvcurveto
            -97 vlineto
            -44 -24 -29 -76 -48 -44 11 14 -40 vhcurveto
            -88 vlineto
            -12 34 41 -9 59 hhcurveto
            132 59 58 92 hvcurveto
            113 vlineto
            95 -50 56 -104 -27 -22 -1 -3 -26 vhcurveto
            187 211 85 vlineto
            endchar
          </CharString>
          <CharString index="163">
            -35 -5 -40 hhcurveto
            -88 148 callgsubr
            return
          </CharString>
          <CharString index="164">
            227 callgsubr
            67 callgsubr
            return
          </CharString>
          <CharString index="165">
            -129 93 -46 114 return
          </CharString>
          <CharString index="166">
            83 60 vlineto
            50 25 29 75 38 34 -7 -6 18 vhcurveto
            -79 vlineto
            -277 -292 rlineto
            108 337 callgsubr
            38 41 22 31 7 15 rlinecurve
            return
          </CharString>
          <CharString index="167">
            169 callsubr
            -136 84 -16 callsubr
          </CharString>
          <CharString index="168">
            hhcurveto
            -69 -41 -15 callgsubr
            10 22 0 vhcurveto
            61 72 -245 -72 97 hlineto
            0 -8 -21 -42 65 callsubr
            -55 vlineto
            -98 71 -52 121 return
          </CharString>
          <CharString index="169">
            48 52 523 rmoveto
            -369 vlineto
            -94 51 -70 123 123 51 70 94 vhcurveto
            369 vlineto
            95 -51 69 -123 -123 -51 -69 -95 vhcurveto
            256 -2 rmoveto
            -365 vlineto
            -50 -19 -33 -63 -63 -19 34 49 vhcurveto
            365 vlineto
            50 19 34 63 63 19 -34 -50 vhcurveto
            endchar
          </CharString>
          <CharString index="170">
            9 -1 9 -5 callgsubr
            -46 47 -99 77 callsubr
            return
          </CharString>
          <CharString index="171">
            -98 59 -43 106 41 29 7 5 12 vhcurveto
            307 callsubr
            return
          </CharString>
          <CharString index="172">
            vvcurveto
            -60 -10 callgsubr
            return
          </CharString>
          <CharString index="173">
            vlineto
            40 -7 23 0 vhcurveto
            109 hlineto
            return
          </CharString>
          <CharString index="174">
            -9 -55 10 callsubr
            return
          </CharString>
          <CharString index="175">
            -136 349 322 rmoveto
            -282 -322 rlineto
            103 hlineto
            83 90 60 67 26 37 10 23 rlinecurve
            -146 366 rmoveto
            123 72 -354 -72 146 -213 hlineto
            -37 -16 -25 -5 callsubr
            153 callsubr
            return
          </CharString>
          <CharString index="176">
            -132 83 -64 153 79 68 19 13 43 vhcurveto
            -21 35 46 -9 50 hhcurveto
            43 38 132 callsubr
            92 72 vlineto
            endchar
          </CharString>
          <CharString index="177">
            61 52 523 -78 callsubr
            return
          </CharString>
          <CharString index="178">
            146 -180 vlineto
            -37 -10 -22 -46 -4 -7 0 1 -5 vhcurveto
            -79 vlineto
            -1 8 8 0 7 hhcurveto
            99 35 53 81 hvcurveto
            184 82 72 return
          </CharString>
          <CharString index="179">
            175 81 callgsubr
            return
          </CharString>
          <CharString index="180">
            rmoveto
            289 callsubr
            126 -410 249 callgsubr
            -619 -72 442 127 callsubr
            endchar
          </CharString>
          <CharString index="181">
            4 -11 -34 7 -40 hhcurveto
            return
          </CharString>
          <CharString index="182">
            194 callgsubr
            -10 hvcurveto
            -71 vlineto
            1 8 9 0 9 hhcurveto
            30 return
          </CharString>
          <CharString index="183">
            hhcurveto
            41 33 7 4 11 hvcurveto
            240 callgsubr
          </CharString>
          <CharString index="184">
            -30 -25 -4 -4 -12 vhcurveto
            86 return
          </CharString>
          <CharString index="185">
            vlineto
            283 callsubr
            -56 -25 -14 -78 vhcurveto
            -22 return
          </CharString>
          <CharString index="186">
            133 callsubr
            vlineto
            endchar
          </CharString>
          <CharString index="187">
            -264 -294 rlineto
            104 hlineto
            87 94 60 66 18 31 5 13 rlinecurve
            1 hlineto
            -4 -23 -3 -55 -56 vvcurveto
            -23 81 586 93 72 return
          </CharString>
          <CharString index="188">
            -51 22 -103 41 rcurveline
            -81 33 -85 -25 -97 vvcurveto
            -19 3 -18 0 vhcurveto
            78 hlineto
            -10 57 42 9 49 -21 103 -41 rcurveline
            81 -33 85 return
          </CharString>
          <CharString index="189">
            -329 vlineto
            44 callgsubr
            return
          </CharString>
          <CharString index="190">
            vlineto
            -129 92 -46 114 43 38 110 callsubr
          </CharString>
          <CharString index="191">
            -132 81 -64 150 53 45 4 11 40 vhcurveto
            -98 84 79 callsubr
          </CharString>
          <CharString index="192">
            -150 89 callgsubr
          </CharString>
          <CharString index="193">
            130 callsubr
            168 callgsubr
            return
          </CharString>
          <CharString index="194">
            119 callsubr
            -21 -3 return
          </CharString>
          <CharString index="195">
            -72 271 hlineto
            0 13 -20 -43 vvcurveto
            -80 vlineto
            -36 -9 -29 -60 vhcurveto
            -66 -79 61 hlineto
            63 -1 11 -31 -38 vvcurveto
            -83 vlineto
            -46 -30 -23 -70 -40 -35 7 10 -36 vhcurveto
            -80 vlineto
            -9 39 31 -6 42 hhcurveto
            123 61 50 96 hvcurveto
            return
          </CharString>
          <CharString index="196">
            -72 77 -323 hlineto
            -86 47 -50 109 return
          </CharString>
          <CharString index="197">
            -41 4 -38 hhcurveto
            -111 -62 -51 -95 hvcurveto
            -218 -63 callsubr
            210 vlineto
            42 25 28 63 21 20 -1 -1 19 vhcurveto
            -3 -14 -2 -14 -16 vvcurveto
            -176 vlineto
            -87 return
          </CharString>
          <CharString index="198">
            104 43 47 82 vhcurveto
            154 73 vlineto
            18 14 -2 -7 9 hvcurveto
            -73 189 callsubr
            return
          </CharString>
          <CharString index="199">
            210 callgsubr
            43 vlineto
            36 9 21 55 vhcurveto
            63 hlineto
            return
          </CharString>
          <CharString index="200">
            -21 -54 -55 339 callgsubr
            114 vlineto
            35 9 22 55 vhcurveto
            return
          </CharString>
          <CharString index="201">
            -20 2 3 -17 vhcurveto
            return
          </CharString>
          <CharString index="202">
            vlineto
            -26 callsubr
          </CharString>
          <CharString index="203">
            vlineto
            -95 65 -64 115 56 37 8 10 33 vhcurveto
            217 callsubr
            93 vlineto
            -6 16 29 -7 33 hhcurveto
            103 47 50 87 hvcurveto
            145 vlineto
            87 -50 52 -107 -106 -50 -52 -87 return
          </CharString>
          <CharString index="204">
            rmoveto
            -36 -10 -29 -55 -55 -14 28 37 vhcurveto
            216 vlineto
            37 13 28 55 56 10 -28 -37 vhcurveto
            -217 -216 rmoveto
            -36 -14 -29 -55 -55 -10 29 36 vhcurveto
            217 vlineto
            36 11 28 55 55 13 -28 -36 vhcurveto
            return
          </CharString>
          <CharString index="205">
            175 18 callgsubr
            return
          </CharString>
          <CharString index="206">
            1 8 9 0 9 hhcurveto
            30 20 -11 -29 20 hvcurveto
            76 -117 rlineto
            88 hlineto
            return
          </CharString>
          <CharString index="207">
            -29 11 -22 39 183 callsubr
            return
          </CharString>
          <CharString index="208">
            434 107 callsubr
            return
          </CharString>
          <CharString index="209">
            hlineto
            3 callgsubr
            return
          </CharString>
          <CharString index="210">
            -38 115 callgsubr
            return
          </CharString>
          <CharString index="211">
            rmoveto
            322 callsubr
            -473 248 callsubr
            vlineto
            151 callsubr
            return
          </CharString>
          <CharString index="212">
            125 256 rmoveto
            -88 callsubr
            return
          </CharString>
          <CharString index="213">
            -241 -519 rlineto
            -79 338 79 -242 vlineto
            244 521 rlineto
            return
          </CharString>
          <CharString index="214">
            rmoveto
            -114 149 114 hlineto
            -196 return
          </CharString>
          <CharString index="215">
            -5 -6 14 vhcurveto
            -394 return
          </CharString>
          <CharString index="216">
            -22 -29 -2 -6 -17 return
          </CharString>
          <CharString index="217">
            280 callgsubr
            vlineto
            endchar
          </CharString>
          <CharString index="218">
            -49 callsubr
            endchar
          </CharString>
          <CharString index="219">
            vlineto
            -167 133 rlineto
            29 7 23 17 52 hhcurveto
            21 17 -4 0 hvcurveto
            73 vlineto
            0 -20 3 -23 return
          </CharString>
          <CharString index="220">
            44 callgsubr
            329 return
          </CharString>
          <CharString index="221">
            -27 -57 -20 -20 3 5 -16 vhcurveto
            return
          </CharString>
          <CharString index="222">
            85 -16 callsubr
          </CharString>
          <CharString index="223">
            327 rmoveto
            166 -140 rlineto
            -20 vlineto
            -4 -14 -25 -7 -39 hhcurveto
            -66 -22 30 41 hvcurveto
            166 26 rmoveto
            -162 136 rlineto
            27 9 24 17 51 hhcurveto
            38 26 -8 -5 14 hvcurveto
            return
          </CharString>
          <CharString index="224">
            28 vlineto
            -33 callsubr
            endchar
          </CharString>
          <CharString index="225">
            -56 -13 21 34 hvcurveto
            6 vlineto
            33 15 19 56 vhcurveto
            153 153 return
          </CharString>
          <CharString index="226">
            77 vlineto
            -2 -15 return
          </CharString>
          <CharString index="227">
            -118 vlineto
            -83 42 -46 104 104 43 231 callsubr
            92 return
          </CharString>
          <CharString index="228">
            -71 97 callgsubr
          </CharString>
          <CharString index="229">
            -60 5 677 rmoveto
            -84 217 vlineto
            -63 -202 rlineto
            -31 -94 -19 -81 -111 vvcurveto
            -105 93 100 vlineto
            109 19 76 30 96 vhcurveto
            72 223 rlineto
            73 vlineto
            endchar
          </CharString>
          <CharString index="230">
            99 hlineto
            166 205 rlineto
            0 vlineto
            -205 -49 callgsubr
            93 return
          </CharString>
          <CharString index="231">
            -183 vlineto
            -104 51 -57 124 25 return
          </CharString>
          <CharString index="232">
            rmoveto
            -38 192 callsubr
            return
          </CharString>
          <CharString index="233">
            hhcurveto
            109 callsubr
            hvcurveto
            return
          </CharString>
          <CharString index="234">
            -99 -319 145 callgsubr
            return
          </CharString>
          <CharString index="235">
            rmoveto
            32 12 17 25 24 -12 18 -32 -33 -10 -18 -24 -25 10 -17 33 hvcurveto
            -144 hmoveto
            32 11 17 25 24 -11 18 -32 -33 -11 -18 -24 -25 11 -17 33 hvcurveto
            return
          </CharString>
          <CharString index="236">
            vlineto
            86 -43 48 -100 -99 -44 -48 -86 vhcurveto
            return
          </CharString>
          <CharString index="237">
            -43 150 153 54 45 111 vhcurveto
            return
          </CharString>
          <CharString index="238">
            126 callgsubr
            hvcurveto
            return
          </CharString>
          <CharString index="239">
            6 5 23 197 callsubr
            return
          </CharString>
          <CharString index="240">
            583 93 72 return
          </CharString>
          <CharString index="241">
            vlineto
            -92 38 -42 108 27 23 3 5 19 vhcurveto
            -78 12 59 -51 103 hhcurveto
            56 37 8 10 33 hvcurveto
            217 callsubr
            return
          </CharString>
          <CharString index="242">
            hhcurveto
            -59 -25 -47 callsubr
            59 vhcurveto
            9 8 -1 10 hhcurveto
            73 vlineto
            1 -12 -13 0 -10 hhcurveto
            -109 302 callgsubr
            return
          </CharString>
          <CharString index="243">
            20 callgsubr
            -25 vlineto
            -94 64 -51 104 -5 vhcurveto
            -141 -141 rlineto
            112 hlineto
            150 154 rlineto
            2 -105 240 callsubr
          </CharString>
          <CharString index="244">
            284 callsubr
            -49 218 callgsubr
            return
          </CharString>
          <CharString index="245">
            36 30 -7 -4 return
          </CharString>
          <CharString index="246">
            vlineto
            -36 -12 -24 -55 -56 -12 24 36 vhcurveto
            218 237 rmoveto
            0 -2 17 11 vvcurveto
            36 14 28 58 57 14 -27 -36 vhcurveto
            -133 vlineto
            -36 -14 -26 -57 return
          </CharString>
          <CharString index="247">
            vlineto
            -99 69 -51 118 vhcurveto
            9 hlineto
            -150 -131 rlineto
            107 hlineto
            151 138 rlineto
            79 vlineto
            -6 -37 -28 -3 -42 hhcurveto
            -71 -41 19 62 hvcurveto
            endchar
          </CharString>
          <CharString index="248">
            -404 vlineto
            -4 -12 -23 -5 291 callgsubr
            24 37 hvcurveto
            return
          </CharString>
          <CharString index="249">
            -159 rmoveto
            319 callgsubr
            -112 155 rlineto
            return
          </CharString>
          <CharString index="250">
            195 callgsubr
            endchar
          </CharString>
          <CharString index="251">
            43 325 677 rmoveto
            -136 -336 142 -341 rlineto
            102 hlineto
            -146 343 137 334 rlineto
            -362 hmoveto
            -677 92 677 vlineto
            return
          </CharString>
          <CharString index="252">
            146 rmoveto
            -8 callgsubr
            return
          </CharString>
          <CharString index="253">
            -47 -87 hvcurveto
            -36 85 34 vlineto
            35 11 22 48 vhcurveto
            4 hlineto
            49 11 -22 -35 hvcurveto
            return
          </CharString>
          <CharString index="254">
            3 callgsubr
            -39 -12 -18 -34 -8 vhcurveto
            46 -15 -45 28 -79 hhcurveto
            return
          </CharString>
          <CharString index="255">
            196 634 -196 hlineto
            236 -185 rmoveto
            196 185 -196 hlineto
            return
          </CharString>
          <CharString index="256">
            -94 57 -70 123 return
          </CharString>
          <CharString index="257">
            -117 69 -48 123 58 40 7 6 33 vhcurveto
            78 vlineto
            -7 -37 -34 -7 -60 hhcurveto
            -70 -38 25 64 hvcurveto
            120 vlineto
            -5 20 28 -4 24 hhcurveto
            return
          </CharString>
          <CharString index="258">
            234 callsubr
            181 callsubr
            return
          </CharString>
          <CharString index="259">
            -132 83 -64 153 62 51 12 12 39 vhcurveto
            -28 25 40 -14 58 hhcurveto
            40 33 7 4 12 hvcurveto
            179 callgsubr
          </CharString>
          <CharString index="260">
            -80 vlineto
            -2 5 23 -1 13 hhcurveto
            90 48 52 86 hvcurveto
            return
          </CharString>
          <CharString index="261">
            hlineto
            2 callgsubr
            return
          </CharString>
          <CharString index="262">
            206 callsubr
            169 -87 hlineto
            return
          </CharString>
          <CharString index="263">
            -72 97 284 callsubr
            return
          </CharString>
          <CharString index="264">
            -83 -63 vlineto
            -107 -50 -41 -93 hvcurveto
            return
          </CharString>
          <CharString index="265">
            36 16 25 55 7 9 -1 -1 return
          </CharString>
          <CharString index="266">
            12 22 28 29 -12 22 return
          </CharString>
          <CharString index="267">
            vhcurveto
            -76 -49 callgsubr
            return
          </CharString>
          <CharString index="268">
            184 callgsubr
            176 237 rmoveto
            return
          </CharString>
          <CharString index="269">
            0 10 -22 -42 vvcurveto
            -151 -92 callgsubr
            return
          </CharString>
          <CharString index="270">
            104 callgsubr
            291 callgsubr
            -64 callsubr
            16 25 55 8 9 -1 -1 5 vhcurveto
            73 vlineto
            2 -5 -13 1 -12 hhcurveto
            return
          </CharString>
          <CharString index="271">
            85 79 callsubr
          </CharString>
          <CharString index="272">
            rlineto
            60 -20 -21 22 -48 hhcurveto
            -11 -9 -1 -2 -10 hvcurveto
            -72 vlineto
            1 7 7 1 7 hhcurveto
            24 9 -16 -30 11 hvcurveto
            43 -111 rlineto
            return
          </CharString>
          <CharString index="273">
            rmoveto
            137 -334 hlineto
            -3 -11 -22 -4 -26 hhcurveto
            -59 -19 26 36 hvcurveto
            return
          </CharString>
          <CharString index="274">
            -47 callgsubr
            endchar
          </CharString>
          <CharString index="275">
            159 99 72 -471 -72 288 -81 return
          </CharString>
          <CharString index="276">
            -86 47 -50 105 39 28 7 5 14 vhcurveto
            return
          </CharString>
          <CharString index="277">
            -22 25 40 hvcurveto
            152 vlineto
            return
          </CharString>
          <CharString index="278">
            rmoveto
            12 callgsubr
            -9 return
          </CharString>
          <CharString index="279">
            6 5 23 vhcurveto
            -96 return
          </CharString>
          <CharString index="280">
            rmoveto
            -6 -24 -35 -5 -41 hhcurveto
            -87 225 callsubr
            return
          </CharString>
          <CharString index="281">
            84 416 vlineto
            6 21 31 2 25 196 callsubr
            -6 77 8 322 callgsubr
            -28 -33 -3 -5 -21 vhcurveto
            return
          </CharString>
          <CharString index="282">
            5 -15 -30 6 -43 hhcurveto
            return
          </CharString>
          <CharString index="283">
            482 rmoveto
            -249 hlineto
            return
          </CharString>
          <CharString index="284">
            vlineto
            -44 -20 -11 -61 vhcurveto
            -44 -64 hlineto
            -128 81 -47 114 42 42 6 5 30 vhcurveto
            -71 115 callsubr
          </CharString>
          <CharString index="285">
            -47 callsubr
            58 36 30 -7 -4 12 vhcurveto
            return
          </CharString>
          <CharString index="286">
            -39 -12 -22 -29 return
          </CharString>
          <CharString index="287">
            -255 vlineto
            202 callgsubr
            return
          </CharString>
          <CharString index="288">
            -34 vlineto
            -87 276 callgsubr
            20 hlineto
            58 14 -24 -34 hvcurveto
            -25 vlineto
            -47 -35 -17 -63 -51 -48 7 10 -38 vhcurveto
            -79 vlineto
            return
          </CharString>
          <CharString index="289">
            260 callsubr
            12 vhcurveto
            return
          </CharString>
          <CharString index="290">
            38 13 22 29 28 -13 22 -38 return
          </CharString>
          <CharString index="291">
            150 rmoveto
            -4 -10 -30 144 callgsubr
            -24 178 callsubr
            return
          </CharString>
          <CharString index="292">
            15 callsubr
            393 vlineto
            6 22 32 3 24 hhcurveto
            56 15 -23 -39 hvcurveto
            return
          </CharString>
          <CharString index="293">
            vlineto
            -93 59 -56 132 47 47 7 9 28 vhcurveto
            84 vlineto
            149 callgsubr
            endchar
          </CharString>
          <CharString index="294">
            -72 77 -333 vlineto
            1 callgsubr
            return
          </CharString>
          <CharString index="295">
            -89 47 -50 107 40 33 7 4 12 160 callsubr
            92 return
          </CharString>
          <CharString index="296">
            vlineto
            341 callsubr
            return
          </CharString>
          <CharString index="297">
            234 callgsubr
            -107 -56 -43 -97 hvcurveto
            return
          </CharString>
          <CharString index="298">
            35 9 26 51 52 9 -25 -36 vhcurveto
            return
          </CharString>
          <CharString index="299">
            -12 -22 -28 227 callgsubr
            return
          </CharString>
          <CharString index="300">
            -53 -86 hvcurveto
            -162 vlineto
            return
          </CharString>
          <CharString index="301">
            -108 -51 -51 -91 hvcurveto
            return
          </CharString>
          <CharString index="302">
            -1 0 vhcurveto
            74 vlineto
            0 return
          </CharString>
          <CharString index="303">
            hhcurveto
            56 16 -23 -38 hvcurveto
            return
          </CharString>
          <CharString index="304">
            hvcurveto
            -96 -49 callgsubr
            return
          </CharString>
          <CharString index="305">
            -362 84 583 return
          </CharString>
          <CharString index="306">
            -72 269 213 callsubr
            return
          </CharString>
          <CharString index="307">
            369 rmoveto
            -28 callsubr
            -98 -47 -47 -86 hvcurveto
            return
          </CharString>
          <CharString index="308">
            -72 263 -122 -61 hlineto
            -103 -42 -46 -83 hvcurveto
            -66 vlineto
            -83 40 -50 104 104 41 51 83 vhcurveto
            121 return
          </CharString>
          <CharString index="309">
            -233 69 719 rmoveto
            -41 -214 rlineto
            45 hlineto
            22 36 48 344 callsubr
          </CharString>
          <CharString index="310">
            -115 133 677 rmoveto
            -121 -87 rlineto
            -103 vlineto
            122 88 rlineto
            -575 345 callgsubr
          </CharString>
          <CharString index="311">
            -14 -78 281 callgsubr
            -24 vhcurveto
            -10 return
          </CharString>
          <CharString index="312">
            85 vlineto
            46 -16 35 -34 22 vhcurveto
            34 23 16 36 47 vvcurveto
            return
          </CharString>
          <CharString index="313">
            41 10 22 0 vhcurveto
            return
          </CharString>
          <CharString index="314">
            0 vhcurveto
            82 hlineto
            0 return
          </CharString>
          <CharString index="315">
            vlineto
            -28 callsubr
            -98 -47 -47 -86 hvcurveto
            return
          </CharString>
          <CharString index="316">
            -87 hlineto
            -36 -27 -8 0 hvcurveto
            -73 vlineto
            0 23 9 32 56 15 -24 -47 vhcurveto
            -180 vlineto
            -60 -21 -22 return
          </CharString>
          <CharString index="317">
            434 rmoveto
            -113 149 113 hlineto
            return
          </CharString>
          <CharString index="318">
            161 callgsubr
            -4 return
          </CharString>
          <CharString index="319">
            hlineto
            -392 vmoveto
            -97 callsubr
            return
          </CharString>
          <CharString index="320">
            -149 -64 vlineto
            -69 callgsubr
            return
          </CharString>
          <CharString index="321">
            7 345 423 rmoveto
            324 callgsubr
            vlineto
            -107 -50 -41 -93 hvcurveto
            return
          </CharString>
          <CharString index="322">
            341 callgsubr
            -141 vlineto
            -36 -14 -27 -58 -28 -27 7 5 -16 vhcurveto
            return
          </CharString>
          <CharString index="323">
            -21 -38 vvcurveto
            -69 342 callgsubr
            75 vlineto
            36 12 21 48 vhcurveto
            endchar
          </CharString>
          <CharString index="324">
            79 vlineto
            -11 -35 -33 -9 -48 hhcurveto
            -70 -35 30 54 hvcurveto
            return
          </CharString>
          <CharString index="325">
            -324 hlineto
            -86 45 -58 121 return
          </CharString>
          <CharString index="326">
            -333 221 callsubr
            return
          </CharString>
          <CharString index="327">
            25 41 hvcurveto
            160 vlineto
            39 return
          </CharString>
          <CharString index="328">
            85 133 callsubr
            return
          </CharString>
          <CharString index="329">
            hlineto
            -57 1 -12 return
          </CharString>
          <CharString index="330">
            258 callsubr
            -93 51 -53 323 callgsubr
            49 51 93 vhcurveto
            38 vlineto
            93 return
          </CharString>
          <CharString index="331">
            30 11 21 51 vhcurveto
            21 66 -19 hlineto
            -50 1 -9 20 31 vvcurveto
            9 vlineto
            37 16 15 36 vhcurveto
            return
          </CharString>
          <CharString index="332">
            148 callgsubr
            108 hlineto
            return
          </CharString>
          <CharString index="333">
            122 -183 -122 -183 rlineto
            94 hlineto
            121 183 -121 183 rlineto
            endchar
          </CharString>
          <CharString index="334">
            -111 hlineto
            -41 callgsubr
            return
          </CharString>
          <CharString index="335">
            294 callgsubr
            -61 24 -44 52 -21 vhcurveto
            -73 return
          </CharString>
          <CharString index="336">
            94 hlineto
            60 20 -31 -46 hvcurveto
            -266 154 rmoveto
            return
          </CharString>
          <CharString index="337">
            -3 -15 -3 -45 -67 vvcurveto
            -108 81 583 92 return
          </CharString>
          <CharString index="338">
            46 83 vhcurveto
            173 113 198 callsubr
            return
          </CharString>
          <CharString index="339">
            257 callsubr
            29 return
          </CharString>
          <CharString index="340">
            11 13 6 20 33 vvcurveto
            return
          </CharString>
          <CharString index="341">
            -103 -49 -40 -87 hvcurveto
            return
          </CharString>
          <CharString index="342">
            0 -8 -21 -42 vvcurveto
            return
          </CharString>
          <CharString index="343">
            14 23 58 vhcurveto
            return
          </CharString>
          <CharString index="344">
            51 101 rmoveto
            -42 -229 rlineto
            52 hlineto
            24 42 55 102 46 vvcurveto
            25 -16 14 -27 vhcurveto
            return
          </CharString>
          <CharString index="345">
            -74 -22 28 43 hvcurveto
            46 vlineto
            36 17 22 57 vhcurveto
            41 hlineto
            52 8 -19 -38 hvcurveto
            -24 return
          </CharString>
          <CharString index="346">
            252 callgsubr
            endchar
          </CharString>
          <CharString index="347">
            221 callsubr
            hlineto
            endchar
          </CharString>
          <CharString index="348">
            vlineto
            84 -51 39 -75 -30 -21 -8 0 vhcurveto
            -68 vlineto
            0 13 8 26 34 22 -15 return
          </CharString>
          <CharString index="349">
            357 434 rmoveto
            149 101 72 -486 -72 298 -81 -67 vlineto
            -103 -51 return
          </CharString>
          <CharString index="350">
            hhcurveto
            104 43 46 83 hvcurveto
            299 callsubr
          </CharString>
          <CharString index="351">
            -92 -87 callsubr
            -92 return
          </CharString>
          <CharString index="352">
            -583 97 callgsubr
          </CharString>
          <CharString index="353">
            107 hlineto
            0 10 -22 -42 vvcurveto
            return
          </CharString>
          <CharString index="354">
            0 -7 -21 -42 vvcurveto
            return
          </CharString>
          <CharString index="355">
            -72 289 -78 -62 return
          </CharString>
          <CharString index="356">
            15 24 58 vhcurveto
            40 return
          </CharString>
          <CharString index="357">
            -19 27 45 hvcurveto
            return
          </CharString>
          <CharString index="358">
            341 callsubr
            22 vhcurveto
            -96 221 callsubr
            return
          </CharString>
          <CharString index="359">
            12 7 -23 -37 290 callsubr
            -36 -13 -27 -57 -21 -22 4 4 -16 vhcurveto
            return
          </CharString>
          <CharString index="360">
            187 callsubr
            -122 84 return
          </CharString>
          <CharString index="361">
            rmoveto
            -33 14 -22 41 40 14 22 33 32 -14 22 -40 -41 -14 -22 -32 vhcurveto
            return
          </CharString>
          <CharString index="362">
            125 callsubr
            39 68 callgsubr
            -39 hvcurveto
            return
          </CharString>
          <CharString index="363">
            -4 -27 10 callsubr
            return
          </CharString>
          <CharString index="364">
            -29 12 -22 39 38 12 22 29 return
          </CharString>
          <CharString index="365">
            -107 -48 -44 -91 hvcurveto
            -226 vlineto
            return
          </CharString>
          <CharString index="366">
            286 callgsubr
            61 72 return
          </CharString>
          <CharString index="367">
            28 58 138 callsubr
            return
          </CharString>
          <CharString index="368">
            -60 -21 -22 -103 -102 -21 return
          </CharString>
          <CharString index="369">
            -41 -213 rlineto
            42 hlineto
            21 36 49 94 43 vvcurveto
            26 -14 14 -27 vhcurveto
            return
          </CharString>
          <CharString index="370">
            -65 29 -45 56 -19 vhcurveto
            -74 -1 -24 -19 -77 hhcurveto
            -67 -32 15 51 hvcurveto
            return
          </CharString>
          <CharString index="371">
            rmoveto
            174 -182 rlineto
            -36 -11 -25 -22 -53 hhcurveto
            -69 -16 31 40 hvcurveto
            return
          </CharString>
          <CharString index="372">
            vlineto
            -87 44 -47 98 98 44 47 87 vhcurveto
            return
          </CharString>
          <CharString index="373">
            rmoveto
            -36 -10 -21 -54 -55 -9 21 36 vhcurveto
            return
          </CharString>
          <CharString index="374">
            -18 32 32 10 18 24 25 -10 18 -32 return
          </CharString>
          <CharString index="375">
            -34 11 -49 hhcurveto
            -21 -33 -2 -5 -17 hvcurveto
            return
          </CharString>
          <CharString index="376">
            -119 -119 -51 return
          </CharString>
          <CharString index="377">
            -149 rmoveto
            -64 hlineto
            return
          </CharString>
          <CharString index="378">
            hvcurveto
            168 vlineto
            return
          </CharString>
          <CharString index="379">
            rmoveto
            278 callsubr
            return
          </CharString>
          <CharString index="380">
            -16 -53 callsubr
            12 27 54 53 13 -26 -35 vhcurveto
            return
          </CharString>
          <CharString index="381">
            -45 148 rlineto
            310 callsubr
            return
          </CharString>
          <CharString index="382">
            178 72 rmoveto
            return
          </CharString>
          <CharString index="383">
            vlineto
            191 callsubr
            179 130 rmoveto
            return
          </CharString>
          <CharString index="384">
            hlineto
            0 -11 39 52 vvcurveto
            56 25 32 60 4 9 -1 0 vhcurveto
            return
          </CharString>
          <CharString index="385">
            36 15 24 57 callgsubr
            return
          </CharString>
          <CharString index="386">
            -84 -43 hlineto
            194 callsubr
            return
          </CharString>
          <CharString index="387">
            -21 -36 -49 -95 -43 vvcurveto
            -26 14 -14 return
          </CharString>
          <CharString index="388">
            -42 vvcurveto
            -151 vlineto
            -45 -26 -25 -58 return
          </CharString>
          <CharString index="389">
            hlineto
            -104 269 callgsubr
            return
          </CharString>
          <CharString index="390">
            0 7 -32 callsubr
            -63 vlineto
            return
          </CharString>
          <CharString index="391">
            hlineto
            235 callsubr
            return
          </CharString>
          <CharString index="392">
            vlineto
            38 19 29 61 vhcurveto
            return
          </CharString>
          <CharString index="393">
            vlineto
            289 callsubr
            return
          </CharString>
          <CharString index="394">
            5 -18 -33 8 -47 hhcurveto
            return
          </CharString>
          <CharString index="395">
            -64 vlineto
            -104 -42 -45 return
          </CharString>
          <CharString index="396">
            42 -9 21 0 vhcurveto
            return
          </CharString>
          <CharString index="397">
            hvcurveto
            -112 vlineto
            return
          </CharString>
          <CharString index="398">
            -118 vlineto
            -83 43 -46 104 103 43 46 83 vhcurveto
            173 return
          </CharString>
          <CharString index="399">
            270 callgsubr
            -158 vlineto
            -15 1 -14 3 -12 vhcurveto
            return
          </CharString>
          <CharString index="400">
            vhcurveto
            119 callgsubr
            -47 hhcurveto
            -66 -35 23 55 hvcurveto
            return
          </CharString>
          <CharString index="401">
            vlineto
            -91 38 -56 124 vhcurveto
            75 vlineto
            -65 -12 31 36 hvcurveto
            return
          </CharString>
          <CharString index="402">
            244 192 rmoveto
            -14 callgsubr
            return
          </CharString>
          <CharString index="403">
            hlineto
            13 26 30 10 33 hhcurveto
            38 24 -19 -42 hvcurveto
            endchar
          </CharString>
          <CharString index="404">
            hlineto
            0 9 -22 -42 vvcurveto
            -151 vlineto
            -45 -25 -25 -59 return
          </CharString>
          <CharString index="405">
            44 60 vvcurveto
            239 vlineto
            247 callgsubr
            return
          </CharString>
          <CharString index="406">
            173 113 61 callgsubr
          </CharString>
          <CharString index="407">
            84 283 callgsubr
            return
          </CharString>
          <CharString index="408">
            vlineto
            3 callgsubr
            return
          </CharString>
          <CharString index="409">
            -93 hlineto
            175 callsubr
            return
          </CharString>
          <CharString index="410">
            -10 -58 320 callsubr
            return
          </CharString>
          <CharString index="411">
            47 49 87 hvcurveto
            137 vlineto
            87 return
          </CharString>
          <CharString index="412">
            -90 hlineto
            234 callgsubr
            return
          </CharString>
          <CharString index="413">
            -53 hhcurveto
            -14 -10 345 callsubr
            return
          </CharString>
          <CharString index="414">
            -77 80 583 93 return
          </CharString>
          <CharString index="415">
            160 94 72 return
          </CharString>
          <CharString index="416">
            -48 -53 -86 hvcurveto
            return
          </CharString>
          <CharString index="417">
            60 -18 -34 156 callgsubr
            return
          </CharString>
          <CharString index="418">
            -170 rmoveto
            -14 callgsubr
            return
          </CharString>
          <CharString index="419">
            hvcurveto
            -64 82 60 vlineto
            49 26 29 75 37 34 -7 return
          </CharString>
          <CharString index="420">
            -45 -18 -33 -61 -62 -18 34 45 vhcurveto
            145 vlineto
            return
          </CharString>
          <CharString index="421">
            -95 -54 -40 -101 -100 54 -43 95 49 41 10 0 return
          </CharString>
          <CharString index="422">
            266 callgsubr
            -39 hvcurveto
            return
          </CharString>
          <CharString index="423">
            vlineto
            35 14 21 53 vhcurveto
            return
          </CharString>
          <CharString index="424">
            -115 -50 -52 -91 hvcurveto
            return
          </CharString>
          <CharString index="425">
            -3 -12 -1 -13 -14 vvcurveto
            return
          </CharString>
          <CharString index="426">
            -48 -20 -33 -60 vhcurveto
            -94 return
          </CharString>
          <CharString index="427">
            hhcurveto
            -70 -37 24 56 hvcurveto
            return
          </CharString>
          <CharString index="428">
            1 -4 9 -27 -38 vvcurveto
            return
          </CharString>
          <CharString index="429">
            153 99 72 return
          </CharString>
          <CharString index="430">
            -102 -44 -49 -87 return
          </CharString>
          <CharString index="431">
            -149 vlineto
            -434 vmoveto
            84 583 92 72 return
          </CharString>
          <CharString index="432">
            -2 -16 2 -15 hhcurveto
            -112 -46 -48 -87 hvcurveto
            return
          </CharString>
          <CharString index="433">
            -78 vlineto
            -78 -11 -35 -48 -73 vvcurveto
            -239 vlineto
            return
          </CharString>
          <CharString index="434">
            22 29 29 -13 22 -38 -39 310 callgsubr
            return
          </CharString>
          <CharString index="435">
            -41 hhcurveto
            -88 -38 35 70 hvcurveto
            57 vlineto
            79 2 return
          </CharString>
          <CharString index="436">
            -15 -29 -69 -68 -15 30 39 vhcurveto
            143 vlineto
            return
          </CharString>
          <CharString index="437">
            15 -23 -37 hvcurveto
            -35 vlineto
            -37 -19 -23 -58 -26 return
          </CharString>
          <CharString index="438">
            -19 -28 -21 hvcurveto
            25 -16 -35 23 -57 hhcurveto
            -100 return
          </CharString>
          <CharString index="439">
            430 rmoveto
            322 callsubr
            return
          </CharString>
          <CharString index="440">
            hhcurveto
            -23 -29 -3 -5 -15 hvcurveto
            return
          </CharString>
          <CharString index="441">
            rrcurveto
            20 callgsubr
            return
          </CharString>
          <CharString index="442">
            -23 160 callgsubr
            return
          </CharString>
          <CharString index="443">
            rmoveto
            308 callsubr
            return
          </CharString>
          <CharString index="444">
            rmoveto
            152 97 72 return
          </CharString>
          <CharString index="445">
            hlineto
            275 callsubr
            return
          </CharString>
          <CharString index="446">
            59 44 10 9 return
          </CharString>
          <CharString index="447">
            0 12 -32 callsubr
            520 135 rmoveto
            return
          </CharString>
          <CharString index="448">
            -129 92 347 callsubr
            38 6 5 return
          </CharString>
          <CharString index="449">
            25 26 -18 19 -26 -25 -19 -19 -26 vhcurveto
            return
          </CharString>
          <CharString index="450">
            vlineto
            149 callsubr
            12 12 1 1 return
          </CharString>
          <CharString index="451">
            258 callgsubr
            endchar
          </CharString>
          <CharString index="452">
            -1 -2 -11 hvcurveto
            return
          </CharString>
          <CharString index="453">
            hhcurveto
            108 59 return
          </CharString>
          <CharString index="454">
            -46 114 43 return
          </CharString>
        <CharString name=".notdef">
          349 172 hmoveto
          409 701 -409 hlineto
          65 -61 rmoveto
          279 -579 -279 hlineto
          endchar
        </CharString>
        <CharString name="A">
          47 157 260 -71 callgsubr
        </CharString>
        <CharString name="AE">
          273 207 260 rmoveto
          147 352 rlineto
          -352 vlineto
          304 337 rmoveto
          80 -359 vlineto
          -293 -677 rlineto
          93 hlineto
          75 180 rlineto
          180 -180 304 81 -216 221 188 80 -188 215 hlineto
          endchar
        </CharString>
        <CharString name="Aacute">
          47 314 827 rmoveto
          -78 hlineto
          -40 -109 rlineto
          55 hlineto
          -94 -458 -71 callgsubr
        </CharString>
        <CharString name="Abreve">
          47 280 827 27 callgsubr
          -180 -567 -71 callgsubr
        </CharString>
        <CharString name="Acircumflex">
          47 229 778 -27 callgsubr
          -34 -458 -71 callgsubr
        </CharString>
        <CharString name="Adieresis">
          47 297 730 128 callsubr
          4 -470 -71 callgsubr
        </CharString>
        <CharString name="Agrave">
          47 248 718 328 callgsubr
          -36 -458 -71 callgsubr
        </CharString>
        <CharString name="Amacron">
          47 341 800 rmoveto
          -234 -55 234 hlineto
          -184 -485 -71 callgsubr
        </CharString>
        <CharString name="Aogonek">
          47 157 260 rmoveto
          68 332 68 -332 rlineto
          145 -260 rmoveto
          -147 677 rlineto
          -130 hlineto
          -147 -677 rlineto
          90 hlineto
          37 180 rlineto
          169 hlineto
          37 -180 rlineto
          49 hlineto
          187 callgsubr
        </CharString>
        <CharString name="Aring">
          47 225 806 rmoveto
          20 13 -14 -19 -21 -13 -13 -20 -20 -13 13 21 19 13 14 20 hvcurveto
          -108 vmoveto
          50 26 34 41 41 -26 33 -50 -49 -27 -33 -41 -41 27 -34 49 hvcurveto
          -68 -438 -71 callgsubr
        </CharString>
        <CharString name="Atilde">
          47 155 734 rmoveto
          22 6 11 16 vhcurveto
          30 30 -41 47 hhcurveto
          47 25 32 51 hvcurveto
          11 -58 -9 vlineto
          -22 -5 -11 -17 vhcurveto
          1 -26 -31 40 -49 hhcurveto
          -51 -22 -36 -48 hvcurveto
          -10 58 vlineto
          2 -465 -71 callgsubr
        </CharString>
        <CharString name="B">
          70 331 158 rmoveto
          -51 -25 -28 -58 vhcurveto
          -94 221 94 hlineto
          58 25 -29 -50 hvcurveto
          -89 377 rmoveto
          58 25 -28 -51 hvcurveto
          -58 vlineto
          -51 -25 -28 -58 vhcurveto
          -88 216 hlineto
          262 -74 rmoveto
          98 -55 55 -109 vhcurveto
          -190 -677 196 hlineto
          109 55 55 99 hvcurveto
          63 vlineto
          61 -23 46 -56 18 vhcurveto
          52 19 21 46 58 vvcurveto
          endchar
        </CharString>
        <CharString name="C">
          -5 52 533 rmoveto
          -389 vlineto
          -93 59 -56 132 47 47 7 9 28 vhcurveto
          84 vlineto
          149 callgsubr
          377 vlineto
          26 callsubr
          endchar
        </CharString>
        <CharString name="CR">
          -404 endchar
        </CharString>
        <CharString name="Cacute">
          -5 244 827 -47 callgsubr
          -270 -294 rmoveto
          -389 vlineto
          -93 59 -56 132 47 47 7 9 28 vhcurveto
          84 vlineto
          149 callgsubr
          377 vlineto
          26 callsubr
          endchar
        </CharString>
        <CharString name="Ccaron">
          -5 195 718 -50 callsubr
          3 -300 rmoveto
          26 callsubr
          -389 186 callsubr
        </CharString>
        <CharString name="Ccedilla">
          -5 365 95 rmoveto
          149 callgsubr
          377 vlineto
          26 callsubr
          -389 vlineto
          -83 47 -53 103 -11 vhcurveto
          -14 -68 50 callgsubr
          8 35 rlineto
          45 46 7 9 27 hvcurveto
          endchar
        </CharString>
        <CharString name="D">
          69 176 callgsubr
          98 callgsubr
          71 -154 rmoveto
          -362 vlineto
          319 callsubr
          520 94 hlineto
          60 20 -31 -46 hvcurveto
          endchar
        </CharString>
        <CharString name="Dcaron">
          69 192 718 -50 callsubr
          189 -666 rmoveto
          319 callsubr
          520 229 callsubr
          -677 98 callgsubr
          endchar
        </CharString>
        <CharString name="Dcroat">
          314 callgsubr
          218 90 78 -90 224 229 callsubr
          -301 -61 -78 61 -298 98 callgsubr
          endchar
        </CharString>
        <CharString name="E">
          0 62 677 117 callgsubr
        </CharString>
        <CharString name="Eacute">
          112 callgsubr
        </CharString>
        <CharString name="Ecaron">
          0 180 718 -50 callsubr
          243 -230 rmoveto
          80 -308 -677 308 81 -216 221 188 80 -188 215 vlineto
          endchar
        </CharString>
        <CharString name="Ecircumflex">
          0 211 778 -27 callgsubr
          197 -121 rmoveto
          80 -308 -677 308 81 -216 221 188 80 -188 215 vlineto
          endchar
        </CharString>
        <CharString name="Edieresis">
          0 102 772 -83 callgsubr
          -185 -95 117 callgsubr
        </CharString>
        <CharString name="Edotaccent">
          0 62 677 -21 callsubr
          -194 111 53 callgsubr
        </CharString>
        <CharString name="Egrave">
          0 62 677 -21 callsubr
          -243 150 40 callsubr
        </CharString>
        <CharString name="Emacron">
          0 62 677 -21 callsubr
          -272 123 177 callgsubr
          endchar
        </CharString>
        <CharString name="Eogonek">
          0 370 597 rmoveto
          80 -308 -677 267 vlineto
          -25 callgsubr
          81 -216 221 188 80 -188 215 vlineto
          endchar
        </CharString>
        <CharString name="Eth">
          314 callgsubr
          214 95 78 -95 228 229 callsubr
          -305 -70 -78 70 -294 98 callgsubr
          endchar
        </CharString>
        <CharString name="Euro">
          20 161 244 rmoveto
          140 64 -140 70 140 65 -140 84 hlineto
          26 callsubr
          -90 -52 -65 52 -70 -52 -64 52 -100 186 callsubr
        </CharString>
        <CharString name="F">
          -25 176 callgsubr
          93 284 195 82 -195 230 206 81 vlineto
          endchar
        </CharString>
        <CharString name="G">
          -12 callsubr
          endchar
        </CharString>
        <CharString name="Gbreve">
          -12 callsubr
          238 299 27 callgsubr
          endchar
        </CharString>
        <CharString name="H">
          101 349 677 rmoveto
          -303 -194 303 -93 -677 93 291 194 -291 345 callgsubr
        </CharString>
        <CharString name="I">
          -186 176 callgsubr
          345 callgsubr
        </CharString>
        <CharString name="Iacute">
          112 callgsubr
        </CharString>
        <CharString name="Icircumflex">
          -186 112 778 -27 callgsubr
          -12 -718 rmoveto
          93 677 -93 hlineto
          endchar
        </CharString>
        <CharString name="Idieresis">
          -186 176 callgsubr
          93 677 vlineto
          -163 95 39 callsubr
        </CharString>
        <CharString name="Idotaccent">
          -186 176 callgsubr
          93 677 vlineto
          -92 111 53 callgsubr
        </CharString>
        <CharString name="Igrave">
          0 62 677 -21 callsubr
          -244 150 40 callsubr
        </CharString>
        <CharString name="Imacron">
          -186 176 callgsubr
          93 677 vlineto
          -161 123 177 callgsubr
          endchar
        </CharString>
        <CharString name="Iogonek">
          -186 155 hmoveto
          677 -93 -677 53 vlineto
          187 callgsubr
        </CharString>
        <CharString name="J">
          -184 65 677 rmoveto
          -478 vlineto
          -98 -14 -63 -24 -82 vhcurveto
          -30 -105 rlineto
          96 hlineto
          31 104 rlineto
          20 71 13 62 112 vvcurveto
          477 vlineto
          endchar
        </CharString>
        <CharString name="K">
          144 callsubr
          endchar
        </CharString>
        <CharString name="L">
          -45 176 callgsubr
          292 79 -199 598 vlineto
          endchar
        </CharString>
        <CharString name="Lacute">
          -45 119 827 -47 callgsubr
          -135 -150 rmoveto
          -677 292 79 -199 598 vlineto
          endchar
        </CharString>
        <CharString name="Lcaron">
          -45 71 718 -50 callsubr
          137 -748 rmoveto
          598 -93 -677 292 79 vlineto
          endchar
        </CharString>
        <CharString name="Lslash">
          -44 159 79 rmoveto
          239 vlineto
          95 46 rlineto
          69 vlineto
          -95 -46 rlineto
          290 -93 -335 vlineto
          -54 -26 rlineto
          -68 vlineto
          54 26 rlineto
          -274 292 79 vlineto
          endchar
        </CharString>
        <CharString name="M">
          217 455 677 rmoveto
          -145 -403 -145 403 rlineto
          -103 -677 88 325 hlineto
          106 -10 94 0 vhcurveto
          127 -347 rlineto
          86 hlineto
          127 347 rlineto
          0 -10 -86 -115 vvcurveto
          -324 89 677 vlineto
          endchar
        </CharString>
        <CharString name="N">
          104 355 677 89 callgsubr
        </CharString>
        <CharString name="NULL">
          -404 endchar
        </CharString>
        <CharString name="Nacute">
          104 263 827 -47 callgsubr
          14 85 callsubr
        </CharString>
        <CharString name="Ncaron">
          104 217 718 -50 callsubr
          191 85 callsubr
        </CharString>
        <CharString name="Ntilde">
          104 355 677 -48 callgsubr
          -113 143 -50 callgsubr
        </CharString>
        <CharString name="O">
          70 callsubr
          endchar
        </CharString>
        <CharString name="OE">
          277 245 80 rmoveto
          -61 -20 33 48 hvcurveto
          362 vlineto
          46 20 31 61 vhcurveto
          100 -520 hlineto
          308 517 rmoveto
          80 -417 vlineto
          -108 -56 -58 -93 hvcurveto
          -371 vlineto
          -92 48 -63 112 vhcurveto
          421 81 -216 221 188 80 -188 215 hlineto
          endchar
        </CharString>
        <CharString name="Oacute">
          61 248 827 -47 callgsubr
          -274 -304 -78 callsubr
          endchar
        </CharString>
        <CharString name="Ocircumflex">
          61 233 778 -27 callgsubr
          126 -561 rmoveto
          -50 -25 -33 -64 -63 -25 34 49 vhcurveto
          363 vlineto
          50 25 34 63 64 25 -34 -50 vhcurveto
          -269 -366 rmoveto
          172 callgsubr
          58 70 94 vhcurveto
          369 vlineto
          95 -58 69 -123 -123 -57 -69 -95 vhcurveto
          endchar
        </CharString>
        <CharString name="Odieresis">
          61 116 772 -83 callgsubr
          -209 -249 -78 callsubr
          endchar
        </CharString>
        <CharString name="Ograve">
          70 callsubr
          -184 307 40 callsubr
        </CharString>
        <CharString name="Ohungarumlaut">
          61 294 827 28 callgsubr
          -219 -304 -78 callsubr
          endchar
        </CharString>
        <CharString name="Omacron">
          61 117 800 177 callgsubr
          -299 -277 -78 callsubr
          endchar
        </CharString>
        <CharString name="Oslash">
          61 321 157 rmoveto
          -50 -25 -33 -64 -35 -24 11 18 -13 vhcurveto
          161 363 rlineto
          -177 54 rmoveto
          50 25 34 63 37 23 -11 -19 14 vhcurveto
          -162 -363 rlineto
          271 466 rmoveto
          -63 hlineto
          -8 -17 rlineto
          17 -28 -37 10 -47 hhcurveto
          -123 -57 -69 -95 hvcurveto
          -369 vlineto
          -36 8 -32 17 -26 vhcurveto
          -27 -60 rlineto
          64 hlineto
          7 17 rlineto
          -17 28 37 -10 46 hhcurveto
          123 58 70 94 hvcurveto
          369 vlineto
          36 -8 32 -17 26 vhcurveto
          endchar
        </CharString>
        <CharString name="Otilde">
          70 callsubr
          -17 300 -50 callgsubr
        </CharString>
        <CharString name="P">
          43 176 callgsubr
          93 223 88 vlineto
          108 57 58 93 hvcurveto
          152 vlineto
          93 -57 58 -108 vhcurveto
          73 -159 rmoveto
          -136 vlineto
          -50 -23 -29 -58 vhcurveto
          -80 294 80 hlineto
          58 23 -29 -50 hvcurveto
          endchar
        </CharString>
        <CharString name="Q">
          61 144 520 rmoveto
          50 25 34 63 64 25 -34 -50 vhcurveto
          -363 vlineto
          -50 -25 -33 -64 -63 -25 34 49 vhcurveto
          317 -254 rmoveto
          -111 119 rlineto
          43 29 20 47 56 vvcurveto
          369 vlineto
          95 -58 69 -123 -123 -57 -69 -95 vhcurveto
          -369 343 callsubr
          11 vhcurveto
          82 -89 rlineto
          endchar
        </CharString>
        <CharString name="R">
          59 154 597 5 callsubr
        </CharString>
        <CharString name="Racute">
          59 317 827 rmoveto
          -78 hlineto
          -40 -109 rlineto
          55 hlineto
          -100 -121 5 callsubr
        </CharString>
        <CharString name="Rcaron">
          59 188 718 -50 callsubr
          19 -230 5 callsubr
        </CharString>
        <CharString name="S">
          -3 26 534 -68 callgsubr
          endchar
        </CharString>
        <CharString name="Sacute">
          -3 214 827 -47 callgsubr
          -266 -293 -68 callgsubr
          endchar
        </CharString>
        <CharString name="Scaron">
          -3 167 718 -50 callsubr
          62 -427 rmoveto
          -42 23 -15 21 44 vvcurveto
          39 vlineto
          44 27 26 67 53 46 -8 -12 31 vhcurveto
          88 vlineto
          8 -24 -47 9 -60 hhcurveto
          -127 -59 -57 -91 hvcurveto
          -60 vlineto
          -70 33 -42 56 -31 vhcurveto
          113 -61 rlineto
          40 -22 13 -18 -41 vvcurveto
          -34 vlineto
          -43 -30 -32 -80 -53 -53 12 12 -33 vhcurveto
          -88 vlineto
          -9 24 55 -12 61 hhcurveto
          136 65 57 94 hvcurveto
          56 vlineto
          64 -27 40 -54 30 vhcurveto
          endchar
        </CharString>
        <CharString name="T">
          -37 359 677 121 callgsubr
        </CharString>
        <CharString name="Tcaron">
          -37 146 718 -50 callsubr
          266 -150 121 callgsubr
        </CharString>
        <CharString name="Thorn">
          32 323 275 rmoveto
          -50 -22 -27 -59 vhcurveto
          -80 283 80 hlineto
          59 22 -29 -49 hvcurveto
          -161 158 rmoveto
          116 -90 -677 90 117 86 vlineto
          108 57 58 93 hvcurveto
          141 vlineto
          93 -57 59 -108 vhcurveto
          endchar
        </CharString>
        <CharString name="U">
          46 callsubr
          endchar
        </CharString>
        <CharString name="Uacute">
          70 249 827 -47 callgsubr
          -3 -150 -58 callsubr
          endchar
        </CharString>
        <CharString name="Ucircumflex">
          70 236 778 -27 callgsubr
          126 -41 -58 callsubr
          endchar
        </CharString>
        <CharString name="Udieresis">
          70 120 772 -83 callgsubr
          59 -95 -58 callsubr
          endchar
        </CharString>
        <CharString name="Ugrave">
          46 callsubr
          -270 150 40 callsubr
        </CharString>
        <CharString name="Uhungarumlaut">
          46 callsubr
          -123 150 28 callgsubr
          endchar
        </CharString>
        <CharString name="Umacron">
          46 callsubr
          -296 123 177 callgsubr
          endchar
        </CharString>
        <CharString name="Uogonek">
          70 324 677 -33 callgsubr
          12 12 1 1 10 vhcurveto
          -24 -26 -17 -33 -34 vvcurveto
          -46 29 -26 56 vhcurveto
          17 54 -12 hlineto
          -23 -12 10 26 33 18 33 26 24 hvcurveto
          59 26 28 55 66 vvcurveto
          523 vlineto
          endchar
        </CharString>
        <CharString name="Uring">
          70 162 773 3 callsubr
          53 -96 -58 callsubr
          endchar
        </CharString>
        <CharString name="V">
          33 330 677 rmoveto
          -63 -322 -17 -90 -19 -127 -12 -53 rlinecurve
          -11 53 -20 126 -17 91 -66 322 rcurveline
          -94 hlineto
          143 -677 rlineto
          130 hlineto
          142 677 rlineto
          endchar
        </CharString>
        <CharString name="W">
          201 504 677 rmoveto
          -57 -354 rlineto
          -12 -75 -10 -104 0 vvcurveto
          -24 179 -54 354 rlineto
          -88 hlineto
          -54 -354 rlineto
          -14 -90 -11 -92 0 vvcurveto
          0 -8 93 -14 89 vhcurveto
          -56 354 rlineto
          -85 hlineto
          104 -677 rlineto
          102 hlineto
          53 319 rlineto
          18 107 9 110 0 vvcurveto
          0 10 -108 18 -109 vhcurveto
          53 -319 rlineto
          98 hlineto
          106 677 rlineto
          endchar
        </CharString>
        <CharString name="X">
          8 302 677 rmoveto
          -95 -238 -96 238 rlineto
          -100 hlineto
          146 -339 -146 -338 rlineto
          100 hlineto
          96 237 94 -237 rlineto
          101 hlineto
          -148 338 148 339 rlineto
          endchar
        </CharString>
        <CharString name="Y">
          25 333 677 42 callgsubr
          endchar
        </CharString>
        <CharString name="Yacute">
          25 333 677 42 callgsubr
          -201 150 167 callsubr
        </CharString>
        <CharString name="Ydieresis">
          25 96 772 -83 callgsubr
          92 -95 42 callgsubr
          endchar
        </CharString>
        <CharString name="Z">
          180 callgsubr
          endchar
        </CharString>
        <CharString name="Zacute">
          -10 207 827 -47 callgsubr
          -254 -150 rmoveto
          -79 236 vlineto
          106 callsubr
          77 vlineto
          endchar
        </CharString>
        <CharString name="Zcaron">
          -10 162 718 -50 callsubr
          257 -150 rmoveto
          -335 -79 236 hlineto
          106 callsubr
          endchar
        </CharString>
        <CharString name="Zdotaccent">
          180 callgsubr
          -213 111 53 callgsubr
        </CharString>
        <CharString name="a">
          -94 callgsubr
          endchar
        </CharString>
        <CharString name="aacute">
          -94 callgsubr
          -64 458 167 callsubr
        </CharString>
        <CharString name="abreve">
          -94 callgsubr
          -15 458 27 callgsubr
          endchar
        </CharString>
        <CharString name="acircumflex">
          24 215 678 -27 callgsubr
          105 -518 rmoveto
          -17 -22 -34 -14 -38 hhcurveto
          -51 -18 23 43 hvcurveto
          30 vlineto
          42 13 21 54 15 vhcurveto
          96 26 rlineto
          -226 207 rmoveto
          9 26 54 11 52 hhcurveto
          75 19 -24 -46 hvcurveto
          -78 vlineto
          -132 -37 rlineto
          -85 -24 -37 -44 -75 vvcurveto
          -33 vlineto
          -90 41 -48 97 64 29 21 23 24 vhcurveto
          -41 88 425 vlineto
          98 -48 56 -129 -58 -52 -9 -9 -28 vhcurveto
          endchar
        </CharString>
        <CharString name="acute">
          -54 156 727 167 callsubr
        </CharString>
        <CharString name="adieresis">
          -94 callgsubr
          -188 403 39 callsubr
        </CharString>
        <CharString name="ae">
          247 326 538 rmoveto
          26 -27 -43 15 -63 hhcurveto
          -58 -54 -11 -8 -25 hvcurveto
          -84 vlineto
          9 26 53 11 53 hhcurveto
          76 17 -26 -41 hvcurveto
          1 -79 -132 -38 rlineto
          -84 -25 -36 -44 -75 vvcurveto
          -33 vlineto
          -90 48 -49 97 63 56 16 26 34 vhcurveto
          -28 30 49 -15 69 hhcurveto
          63 35 8 8 30 hvcurveto
          84 vlineto
          -8 -26 -44 -10 -51 hhcurveto
          -78 -34 25 54 hvcurveto
          89 249 182 vlineto
          91 -48 66 -119 -59 -43 -21 -25 -25 vhcurveto
          -43 -440 rmoveto
          -18 -23 -35 -11 -37 hhcurveto
          -48 -21 21 45 hvcurveto
          30 vlineto
          42 13 21 54 15 vhcurveto
          97 27 rlineto
          250 157 rmoveto
          -107 -163 107 vlineto
          47 26 32 57 57 23 -32 -47 vhcurveto
          endchar
        </CharString>
        <CharString name="agrave">
          -94 callgsubr
          -164 458 40 callsubr
        </CharString>
        <CharString name="amacron">
          -94 callgsubr
          -188 431 177 callgsubr
          endchar
        </CharString>
        <CharString name="ampersand">
          66 323 157 rmoveto
          -50 -25 -34 -63 -63 -27 35 49 vhcurveto
          70 vlineto
          49 22 33 59 vhcurveto
          97 hlineto
          134 80 rmoveto
          -44 61 -90 -61 -99 hlineto
          -59 -19 33 51 hvcurveto
          48 vlineto
          44 22 32 87 50 42 -7 -12 32 vhcurveto
          88 vlineto
          9 -28 -44 8 -54 hhcurveto
          -139 -60 -63 -91 hvcurveto
          -57 vlineto
          -61 27 -42 48 -18 vhcurveto
          -51 -18 -25 -41 -61 vvcurveto
          -75 vlineto
          -95 59 -69 123 123 55 69 95 vhcurveto
          153 44 vlineto
          endchar
        </CharString>
        <CharString name="aogonek">
          24 282 100 rmoveto
          -17 -22 -34 -14 -38 hhcurveto
          -51 -18 23 43 hvcurveto
          30 vlineto
          42 13 21 54 15 vhcurveto
          96 26 rlineto
          -226 207 rmoveto
          9 26 54 11 52 hhcurveto
          75 19 -24 -46 hvcurveto
          -78 vlineto
          -132 -37 rlineto
          -85 -24 -37 -44 -75 vvcurveto
          -33 vlineto
          -90 41 -48 97 64 29 21 23 24 vhcurveto
          -41 46 vlineto
          -25 callgsubr
          1 425 hlineto
          98 -48 56 -129 -58 -52 -9 -9 -28 vhcurveto
          endchar
        </CharString>
        <CharString name="apostrophemod">
          202 callsubr
        </CharString>
        <CharString name="approxequal">
          103 387 315 rmoveto
          10 -58 -39 -9 81 callsubr
          24 98 vvcurveto
          20 -4 17 0 vhcurveto
          -78 172 rmoveto
          10 -58 -39 -9 81 callsubr
          24 98 vvcurveto
          20 -4 17 0 vhcurveto
          endchar
        </CharString>
        <CharString name="aring">
          -94 callgsubr
          -149 404 3 callsubr
          endchar
        </CharString>
        <CharString name="asciicircum">
          -53 344 385 rmoveto
          -114 298 rlineto
          -113 hlineto
          -115 -298 rlineto
          90 hlineto
          82 245 81 -245 rlineto
          endchar
        </CharString>
        <CharString name="asciitilde">
          76 373 407 rmoveto
          10 -57 -39 -10 81 callsubr
          25 97 vvcurveto
          20 -4 17 0 vhcurveto
          endchar
        </CharString>
        <CharString name="asterisk">
          107 462 621 rmoveto
          -26 78 -93 -31 -23 -8 -17 -8 -13 -9 rlinecurve
          5 14 3 19 25 vvcurveto
          98 -83 -98 vlineto
          -24 3 -19 5 -15 vhcurveto
          -13 9 -17 9 -23 8 -93 30 rcurveline
          -25 -79 92 -30 rlineto
          -8 24 20 -2 16 hhcurveto
          -13 -10 -14 -13 -15 -21 -57 -78 rcurveline
          66 -49 57 79 15 20 8 18 5 14 rlinecurve
          5 -14 9 -18 15 -20 57 -79 rcurveline
          67 49 -58 79 -15 20 -14 14 -12 9 rlinecurve
          16 19 2 8 24 hvcurveto
          endchar
        </CharString>
        <CharString name="at">
          469 501 134 rmoveto
          0 -29 -22 -46 -37 -19 13 36 vhcurveto
          20 vlineto
          42 20 10 37 13 vhcurveto
          74 22 rlineto
          28 -388 rmoveto
          74 -88 vlineto
          -238 -54 125 198 197 52 127 240 241 51 -118 -199 -149 -33 -42 -55 -48 -22 21 54 hvcurveto
          227 vlineto
          77 -41 45 -97 -46 -45 -9 -7 -30 vhcurveto
          -67 vlineto
          10 42 34 8 45 hhcurveto
          53 11 -24 -35 hvcurveto
          -57 vlineto
          -102 -33 rlineto
          -66 -22 -39 -31 -70 vvcurveto
          -19 vlineto
          -72 41 -41 78 60 34 16 11 16 vhcurveto
          -34 21 40 -19 56 hhcurveto
          107 65 68 194 243 -85 147 -286 -281 -91 -156 -241 -242 87 -155 285 hvcurveto
          endchar
        </CharString>
        <CharString name="atilde">
          -94 callgsubr
          1 451 -50 callgsubr
        </CharString>
        <CharString name="b">
          47 62 727 rmoveto
          -727 187 vlineto
          88 62 49 99 hvcurveto
          299 vlineto
          86 -53 44 -78 -47 -44 -13 -9 -23 vhcurveto
          172 vlineto
          152 -296 rmoveto
          -273 vlineto
          -51 -29 -23 -50 vhcurveto
          -72 387 hlineto
          10 26 31 11 32 hhcurveto
          39 23 -19 -42 hvcurveto
          endchar
        </CharString>
        <CharString name="backslash">
          13 34 808 rmoveto
          270 -954 rlineto
          84 hlineto
          -270 954 rlineto
          endchar
        </CharString>
        <CharString name="bar">
          -192 72 824 rmoveto
          -985 67 985 vlineto
          endchar
        </CharString>
        <CharString name="braceleft">
          -37 216 663 rmoveto
          36 18 23 52 vhcurveto
          23 79 -28 hlineto
          -94 -52 -55 -86 hvcurveto
          -225 vlineto
          -42 -26 -26 -48 vhcurveto
          -4 -78 4 hlineto
          48 26 -26 -42 hvcurveto
          -225 vlineto
          -86 52 -55 94 vhcurveto
          28 78 -23 hlineto
          -52 -18 24 36 hvcurveto
          205 vlineto
          76 -18 44 -70 10 vhcurveto
          70 11 18 48 75 vvcurveto
          endchar
        </CharString>
        <CharString name="braceright">
          -38 304 367 rmoveto
          -48 -26 26 42 hvcurveto
          225 vlineto
          86 -52 55 -94 vhcurveto
          -28 -79 23 hlineto
          52 18 -23 -36 hvcurveto
          -201 vlineto
          -75 18 -48 70 -11 vhcurveto
          -70 -10 -18 -44 -76 vvcurveto
          -205 vlineto
          -36 -18 -24 -52 vhcurveto
          -23 -78 28 hlineto
          94 52 55 86 hvcurveto
          225 vlineto
          42 26 26 48 vhcurveto
          3 78 hlineto
          endchar
        </CharString>
        <CharString name="bracketleft">
          -87 160 -74 rmoveto
          810 123 72 -200 -954 200 72 vlineto
          endchar
        </CharString>
        <CharString name="bracketright">
          -87 34 808 rmoveto
          -72 122 -810 -122 -72 199 954 vlineto
          endchar
        </CharString>
        <CharString name="breve">
          -54 230 727 27 callgsubr
          endchar
        </CharString>
        <CharString name="brokenbar">
          -192 72 824 rmoveto
          -381 67 381 vlineto
          -67 -604 rmoveto
          -381 67 381 vlineto
          endchar
        </CharString>
        <CharString name="bullet">
          -139 52 329 rmoveto
          -46 19 -34 61 59 20 34 46 45 -20 34 -59 -61 -19 -34 -45 vhcurveto
          endchar
        </CharString>
        <CharString name="c">
          -32 52 428 rmoveto
          -282 vlineto
          -98 54 -53 122 52 32 7 7 28 vhcurveto
          86 vlineto
          47 callsubr
          endchar
        </CharString>
        <CharString name="cacute">
          -32 238 727 -47 callgsubr
          -264 -299 rmoveto
          -282 vlineto
          -98 54 -53 122 52 32 7 7 28 vhcurveto
          86 vlineto
          47 callsubr
          endchar
        </CharString>
        <CharString name="caron">
          -54 212 727 rmoveto
          -37 -60 -38 60 rlineto
          -51 hlineto
          53 -109 rlineto
          72 hlineto
          53 109 rlineto
          endchar
        </CharString>
        <CharString name="ccaron">
          -32 187 618 -50 callsubr
          11 -304 rmoveto
          48 20 24 74 39 37 -7 -8 24 vhcurveto
          86 vlineto
          7 -27 -33 6 -51 hhcurveto
          -122 -54 -54 -97 hvcurveto
          -282 vlineto
          -98 54 -53 122 52 32 7 7 28 vhcurveto
          86 vlineto
          -8 -24 -36 -7 -41 hhcurveto
          -74 -20 23 48 hvcurveto
          endchar
        </CharString>
        <CharString name="ccedilla">
          -32 340 95 rmoveto
          47 callsubr
          -282 vlineto
          -86 42 -51 92 -12 vhcurveto
          -14 -68 50 callgsubr
          8 35 rlineto
          50 31 7 7 28 hvcurveto
          endchar
        </CharString>
        <CharString name="cedilla">
          -54 146 6 rmoveto
          -16 -77 50 callgsubr
          10 46 rlineto
          endchar
        </CharString>
        <CharString name="cent">
          -10 347 95 rmoveto
          -8 -24 -36 -7 -41 hhcurveto
          -74 -20 23 48 hvcurveto
          272 vlineto
          48 20 24 74 39 37 -7 -8 24 vhcurveto
          86 vlineto
          -19 5 -23 5 -30 2 rrcurveto
          76 -85 -78 vlineto
          -90 -12 -40 -52 -84 vvcurveto
          -282 vlineto
          -84 40 -51 88 -13 vhcurveto
          -73 85 71 vlineto
          31 3 23 5 21 5 rrcurveto
          endchar
        </CharString>
        <CharString name="circumflex">
          -54 264 618 rmoveto
          -53 109 rlineto
          -72 hlineto
          -53 -109 rlineto
          51 hlineto
          38 60 37 -60 rlineto
          endchar
        </CharString>
        <CharString name="colon">
          -187 33 398 254 callsubr
          -351 vmoveto
          34 callgsubr
        </CharString>
        <CharString name="comma">
          -239 237 callsubr
          endchar
        </CharString>
        <CharString name="copyright">
          288 44 327 rmoveto
          -190 60 -137 243 239 63 140 187 192 -53 136 -249 -245 -58 -139 -189 vhcurveto
          182 57 rmoveto
          -112 vlineto
          -77 34 -46 99 33 29 6 2 13 vhcurveto
          65 vlineto
          -7 -27 -17 -2 -31 hhcurveto
          -59 -4 25 35 hvcurveto
          110 vlineto
          34 4 26 59 31 17 -2 -7 27 vhcurveto
          65 vlineto
          3 -13 -29 5 -33 hhcurveto
          -99 -34 -47 -76 hvcurveto
          350 -57 rmoveto
          -149 -28 -110 -201 -206 -25 107 152 151 23 109 208 209 20 -107 -153 vhcurveto
          endchar
        </CharString>
        <CharString name="currency">
          56 152 381 rmoveto
          51 17 29 62 63 17 -29 -51 vhcurveto
          -85 vlineto
          -51 -17 -28 -63 -62 -17 29 50 vhcurveto
          248 87 rmoveto
          30 -5 27 -10 23 vhcurveto
          46 45 -56 56 -44 -44 rlineto
          14 -25 -33 7 -42 hhcurveto
          -42 -32 -7 -13 -26 hvcurveto
          -43 43 -56 -56 45 -45 rlineto
          -10 -22 -5 -28 -30 vvcurveto
          -89 vlineto
          -30 5 -26 10 -23 vhcurveto
          -46 -45 56 -56 44 43 rlineto
          -14 25 33 -7 42 hhcurveto
          42 33 7 14 25 hvcurveto
          44 -43 56 56 -46 45 rlineto
          10 22 5 27 30 vvcurveto
          endchar
        </CharString>
        <CharString name="d">
          47 80 callgsubr
          endchar
        </CharString>
        <CharString name="dagger">
          -41 140 793 rmoveto
          -68 7 -76 0 vhcurveto
          0 -46 6 -61 vhcurveto
          -72 vlineto
          61 46 7 0 hvcurveto
          0 -7 -76 -80 vvcurveto
          -463 84 463 vlineto
          80 -6 76 0 vhcurveto
          0 49 -7 57 vhcurveto
          72 vlineto
          -57 -49 -6 0 hvcurveto
          0 6 76 68 vvcurveto
          endchar
        </CharString>
        <CharString name="daggerdbl">
          -41 140 793 rmoveto
          -68 6 -76 0 vhcurveto
          0 -45 6 -61 vhcurveto
          -72 vlineto
          61 45 7 0 hvcurveto
          -2 -114 0 -186 2 -116 rrcurveto
          0 -45 7 -61 vhcurveto
          -73 vlineto
          61 45 7 0 hvcurveto
          0 -6 -54 -90 vvcurveto
          84 hlineto
          90 -7 54 0 vhcurveto
          0 46 -7 61 vhcurveto
          73 vlineto
          -61 -46 -7 0 hvcurveto
          2 116 0 186 -2 114 rrcurveto
          0 46 -7 61 vhcurveto
          72 vlineto
          -61 -46 -6 0 hvcurveto
          0 7 76 68 vvcurveto
          endchar
        </CharString>
        <CharString name="danda">
          -109 146 hmoveto
          85 655 -85 hlineto
          endchar
        </CharString>
        <CharString name="dcaron">
          59 80 callgsubr
          158 235 36 callgsubr
          endchar
        </CharString>
        <CharString name="dcroat">
          48 297 108 rmoveto
          -14 -16 -30 -14 -38 hhcurveto
          -45 -22 23 46 hvcurveto
          266 vlineto
          52 29 24 53 vhcurveto
          69 hlineto
          133 189 rmoveto
          -40 47 -93 -47 -125 -50 125 -56 -81 hlineto
          -102 -61 -58 -99 hvcurveto
          -279 vlineto
          -89 47 -52 91 58 33 23 16 17 vhcurveto
          -36 91 630 40 vlineto
          endchar
        </CharString>
        <CharString name="degree">
          -15 50 657 rmoveto
          -88 38 -67 108 107 40 67 88 88 -40 66 -107 -108 -38 -66 -88 vhcurveto
          218 -1 rmoveto
          -49 -13 -34 -59 -59 -12 34 49 49 12 35 59 59 13 -35 -49 vhcurveto
          endchar
        </CharString>
        <CharString name="dieresis">
          -54 59 672 39 callsubr
        </CharString>
        <CharString name="divide">
          49 40 364 rmoveto
          -78 372 78 vlineto
          -235 -211 rmoveto
          -29 13 -22 38 39 12 327 callsubr
          343 vmoveto
          -29 12 -22 39 38 13 327 callsubr
          endchar
        </CharString>
        <CharString name="dollar">
          -3 176 400 rmoveto
          -42 23 -15 21 44 vvcurveto
          39 vlineto
          44 27 26 67 53 46 -8 -12 31 vhcurveto
          88 vlineto
          -20 7 -35 7 -46 2 rrcurveto
          58 -86 -61 vlineto
          -88 -15 -42 -53 -76 vvcurveto
          -60 vlineto
          -70 33 -42 56 -31 vhcurveto
          113 -61 rlineto
          40 -22 13 -18 -41 vvcurveto
          -34 vlineto
          -43 -30 -32 -80 -53 -53 12 12 -33 vhcurveto
          -88 vlineto
          21 -8 44 -10 51 -2 rrcurveto
          -65 85 68 vlineto
          95 16 45 52 79 vvcurveto
          56 vlineto
          64 -27 40 -54 30 vhcurveto
          endchar
        </CharString>
        <CharString name="dotaccent">
          -54 130 688 53 callgsubr
        </CharString>
        <CharString name="dotlessi">
          101 callgsubr
          endchar
        </CharString>
        <CharString name="dottedcircle">
          256 139 517 rmoveto
          -26 18 -19 26 26 18 19 26 25 -18 19 -26 -26 -18 -19 -25 vhcurveto
          -82 -110 rmoveto
          -25 20 -19 26 24 20 19 25 25 -20 19 -24 -26 -20 -19 -25 vhcurveto
          -13 -126 rmoveto
          -25 19 -18 25 26 18 18 342 callsubr
          52 -116 rmoveto
          -26 18 -18 26 25 19 18 26 25 -19 19 -25 -26 -18 -19 -25 vhcurveto
          101 -75 rmoveto
          -26 19 -20 26 25 19 20 26 24 -19 20 -25 -26 -19 -20 -24 vhcurveto
          127 -16 rmoveto
          -26 18 -18 26 26 19 18 26 26 -19 18 -26 -26 -18 -18 -26 vhcurveto
          121 53 rmoveto
          -26 19 -18 25 25 20 18 26 25 -20 19 -25 -25 -19 -19 -25 vhcurveto
          73 98 rmoveto
          -25 19 -19 26 24 19 19 25 26 -19 19 -24 -26 -19 -19 -26 vhcurveto
          10 134 rmoveto
          -26 18 -18 26 25 19 18 26 26 -19 18 -25 -26 -18 -18 -26 vhcurveto
          -50 118 rmoveto
          -25 19 -19 25 26 18 19 342 callsubr
          -95 68 rmoveto
          -24 19 -20 26 25 18 20 24 26 -18 19 -25 -26 -19 -19 -26 vhcurveto
          -126 15 rmoveto
          -26 18 -18 26 26 18 18 26 26 -18 18 -26 -26 -18 -18 -26 vhcurveto
          endchar
        </CharString>
        <CharString name="doubledanda">
          41 93 hmoveto
          85 655 -85 hlineto
          203 -655 rmoveto
          85 655 -85 hlineto
          endchar
        </CharString>
        <CharString name="dvA">
          170 425 -2 callgsubr
          -368 -108 vlineto
          -88 callgsubr
          93 72 vlineto
          endchar
        </CharString>
        <CharString name="dvAA">
          400 833 -2 callgsubr
          -391 -368 -108 hlineto
          -88 callgsubr
          129 245 callsubr
        </CharString>
        <CharString name="dvAI">
          27 374 -2 callgsubr
          -156 230 rlineto
          -95 hlineto
          164 -230 rlineto
          -315 -72 89 -441 hlineto
          -97 54 -50 118 54 45 10 10 25 vhcurveto
          78 vlineto
          -10 -29 -43 -9 -50 hhcurveto
          -66 -23 26 44 hvcurveto
          439 71 callsubr
          vlineto
          endchar
        </CharString>
        <CharString name="dvAU">
          401 737 -2 callgsubr
          -45 148 rlineto
          -17 callsubr
          -107 -368 -108 hlineto
          -88 callgsubr
          129 -583 13 callgsubr
        </CharString>
        <CharString name="dvAbbreviationsign">
          -15 50 330 rmoveto
          -88 38 -64 108 107 40 64 88 88 -40 65 -107 -108 -38 -65 -88 vhcurveto
          75 hmoveto
          49 12 33 59 59 13 -33 -49 -49 -13 -33 -59 -59 -12 33 49 vhcurveto
          endchar
        </CharString>
        <CharString name="dvAcandra">
          170 425 287 rmoveto
          -108 hlineto
          -88 callgsubr
          93 72 -178 vlineto
          134 201 rmoveto
          -47 -27 -15 -63 93 callgsubr
          3 vlineto
          endchar
        </CharString>
        <CharString name="dvAnusvara">
          -404 -157 778 36 callsubr
          endchar
        </CharString>
        <CharString name="dvAnusvara.amI">
          -404 28 771 36 callsubr
          endchar
        </CharString>
        <CharString name="dvAvagraha">
          16 387 197 rmoveto
          63 -15 43 -65 39 vhcurveto
          -130 77 rlineto
          -37 22 -10 23 36 vvcurveto
          20 vlineto
          32 7 24 63 vhcurveto
          163 79 -167 hlineto
          -113 -38 -48 -84 hvcurveto
          -26 vlineto
          -60 22 -44 56 -33 vhcurveto
          132 -79 rlineto
          38 -22 9 -24 -37 vvcurveto
          -56 vlineto
          -37 -13 -31 -71 vhcurveto
          -3 hlineto
          -71 -13 31 37 hvcurveto
          66 -85 -64 vlineto
          -94 48 -55 119 vhcurveto
          8 hlineto
          119 47 55 94 hvcurveto
          endchar
        </CharString>
        <CharString name="dvB">
          -169 -28 -2 callgsubr
          -72 408 72 vlineto
          -338 -292 rmoveto
          -155 vlineto
          -92 50 -51 116 114 49 50 93 vhcurveto
          155 vlineto
          93 -49 49 -114 -120 -46 -51 -91 vhcurveto
          251 -134 50 callsubr
          endchar
        </CharString>
        <CharString name="dvBA">
          29 124 326 -61 callsubr
          -317 235 rmoveto
          -72 317 -90 vlineto
          190 callsubr
          -159 vlineto
          64 callsubr
          72 vlineto
          endchar
        </CharString>
        <CharString name="dvBH">
          9 254 191 92 callgsubr
          243 73 rmoveto
          -158 8 callsubr
          161 vlineto
          endchar
        </CharString>
        <CharString name="dvBHA">
          199 254 191 22 callsubr
        </CharString>
        <CharString name="dvBH_LA">
          626 254 191 92 callgsubr
          142 322 rmoveto
          -72 485 -111 vlineto
          6 -15 -21 5 -30 -20 callsubr
          -73 -46 -28 -50 -19 hvcurveto
          -120 8 callsubr
          113 -172 vlineto
          -104 51 -57 124 25 20 2 3 16 vhcurveto
          -55 callgsubr
          135 338 callgsubr
          25 22 108 callsubr
          164 callsubr
        </CharString>
        <CharString name="dvBH_NA">
          580 646 192 -101 callsubr
          2 -4 8 -27 -38 vvcurveto
          -392 -145 92 callgsubr
          146 322 rmoveto
          -72 435 -101 -249 vlineto
          -74 -43 -26 -50 -17 hvcurveto
          -113 118 hlineto
          297 callgsubr
          323 callsubr
          -24 4 -24 211 callsubr
          24 22 77 callgsubr
          -116 219 callgsubr
          -91 vlineto
          -82 42 -47 104 104 42 47 82 vhcurveto
          145 108 -141 vlineto
          -87 44 -47 98 98 43 47 87 vhcurveto
          229 callgsubr
        </CharString>
        <CharString name="dvBH_R">
          24 501 432 rmoveto
          -158 92 hlineto
          87 -44 262 callgsubr
          -20 3 -22 161 callgsubr
          -3 19 21 vvcurveto
          35 8 25 53 52 8 -24 -36 vhcurveto
          -90 -63 vlineto
          -104 -43 -46 -83 hvcurveto
          -46 vlineto
          -83 43 -46 104 103 43 46 83 vhcurveto
          102 160 vlineto
          -69 vmoveto
          -305 -340 rlineto
          104 hlineto
          90 98 44 49 49 71 18 30 rlinecurve
          -243 61 92 callsubr
          endchar
        </CharString>
        <CharString name="dvBH_RA">
          205 460 244 rmoveto
          80 callsubr
          -178 47 callgsubr
          -104 -43 -46 -83 hvcurveto
          -46 vlineto
          -83 43 -46 104 103 43 46 83 vhcurveto
          102 119 vlineto
          -202 -100 92 callsubr
          endchar
        </CharString>
        <CharString name="dvBH_R_YA">
          505 761 241 rmoveto
          -53 -10 -28 -24 -71 hhcurveto
          -87 -31 35 70 hvcurveto
          60 vlineto
          80 2 45 36 81 vvcurveto
          72 333 callgsubr
          123 hlineto
          -507 -324 171 callsubr
          22 35 vhcurveto
          35 vlineto
          35 9 22 54 vhcurveto
          64 hlineto
          142 304 rmoveto
          -72 127 vlineto
          40 13 -23 -40 hvcurveto
          -60 vlineto
          -46 -17 -18 -49 -4 vhcurveto
          20 -15 -30 10 -47 hhcurveto
          -79 102 hlineto
          250 callgsubr
          -44 -49 -87 -8 1 -31 161 callgsubr
          -1 30 7 vvcurveto
          35 8 25 52 53 8 -24 -36 vhcurveto
          -100 -64 vlineto
          -103 -43 -45 -82 hvcurveto
          -39 vlineto
          -83 43 -46 103 104 43 46 83 vhcurveto
          94 75 vlineto
          17 13 -2 -6 9 hvcurveto
          -82 vlineto
          -13 1 -13 2 -11 vhcurveto
          -245 -273 rlineto
          104 hlineto
          90 98 27 30 30 39 22 33 rlinecurve
          -47 35 60 -18 72 hhcurveto
          57 35 13 18 20 hvcurveto
          -116 84 79 callsubr
        </CharString>
        <CharString name="dvBH_VA">
          432 690 -14 callsubr
          -436 -230 92 callgsubr
          147 322 rmoveto
          -72 286 -89 vlineto
          74 callsubr
          -88 -48 -37 -62 -14 hvcurveto
          -113 8 callsubr
          112 -129 vlineto
          -89 47 -50 107 -16 callgsubr
          92 72 vlineto
          endchar
        </CharString>
        <CharString name="dvBH_YA">
          505 761 288 callgsubr
          56 callsubr
          109 hlineto
          -507 312 callgsubr
          94 vlineto
          36 9 21 54 vhcurveto
          64 hlineto
          142 313 73 callgsubr
          -103 -43 -45 -83 hvcurveto
          -99 vlineto
          -82 43 -47 103 91 callsubr
          23 vhcurveto
          -96 84 79 callsubr
        </CharString>
        <CharString name="dvB_BA">
          285 380 326 rmoveto
          165 -139 rlineto
          -39 vlineto
          -4 -13 -25 -6 -39 hhcurveto
          -66 -22 29 41 hvcurveto
          -256 116 75 callgsubr
          421 44 rmoveto
          -161 135 rlineto
          27 9 24 17 51 hhcurveto
          38 26 -8 -5 13 hvcurveto
          173 235 rmoveto
          -746 -72 573 -90 hlineto
          190 callsubr
          -115 49 callsubr
          58 40 14 27 25 vhcurveto
          -28 28 44 -13 58 hhcurveto
          41 29 7 5 12 hvcurveto
          -77 80 -16 callsubr
        </CharString>
        <CharString name="dvB_BHA">
          449 244 -2 callgsubr
          -272 -72 272 hlineto
          260 -392 rmoveto
          -19 callsubr
          21 36 vhcurveto
          85 103 callgsubr
          -380 -9 167 callgsubr
          580 445 rmoveto
          -249 -115 118 vlineto
          250 callgsubr
          -45 -49 -87 -23 4 -25 211 callsubr
          27 19 77 callgsubr
          -116 219 callgsubr
          -25 vlineto
          -167 132 -66 callgsubr
          116 51 38 12 22 25 vhcurveto
          -26 23 38 -14 57 hhcurveto
          104 42 47 82 hvcurveto
          145 118 -333 13 callgsubr
        </CharString>
        <CharString name="dvB_BH_RA">
          450 247 -2 callgsubr
          -275 -72 275 hlineto
          256 -324 92 callsubr
          -379 -35 167 callgsubr
          581 445 rmoveto
          47 callgsubr
          -104 -43 -46 -83 hvcurveto
          -46 vlineto
          -3 vlineto
          -166 132 -66 callgsubr
          116 80 46 29 50 19 vhcurveto
          -10 22 29 -6 36 hhcurveto
          103 43 46 83 hvcurveto
          102 119 -115 vlineto
          80 callsubr
          vlineto
          endchar
        </CharString>
        <CharString name="dvB_DA">
          260 124 324 rmoveto
          170 -134 1 -7 rlineto
          -30 -9 -24 -15 -51 hhcurveto
          -68 250 callsubr
          474 213 336 callsubr
          -720 -72 541 157 callsubr
          -112 vlineto
          -166 132 72 callgsubr
          59 39 15 27 24 vhcurveto
          -24 26 39 -13 52 hhcurveto
          34 23 3 6 22 hvcurveto
          -31 callgsubr
          37 14 23 58 vhcurveto
          endchar
        </CharString>
        <CharString name="dvB_DHA">
          330 124 324 167 callgsubr
          461 445 120 callgsubr
          -511 -72 337 hlineto
          0 -10 -22 -41 65 callsubr
          -12 vlineto
          -166 132 -66 callgsubr
          116 58 41 15 28 24 vhcurveto
          -31 32 50 -16 64 hhcurveto
          48 33 6 7 27 hvcurveto
          -74 13 callgsubr
        </CharString>
        <CharString name="dvB_DH_VA">
          568 826 -14 callsubr
          -703 -97 rmoveto
          169 -132 rlineto
          -35 -6 -23 -19 -55 hhcurveto
          -66 250 callsubr
          447 445 -43 callsubr
          -483 -72 335 137 callsubr
          -23 112 callsubr
          -115 -47 94 callgsubr
          51 -51 115 65 43 19 34 24 vhcurveto
          -28 32 50 -14 64 hhcurveto
          51 49 12 10 39 hvcurveto
          -21 25 38 -12 51 hhcurveto
          40 34 7 4 11 hvcurveto
          179 callgsubr
        </CharString>
        <CharString name="dvB_JA">
          474 293 229 50 callsubr
          778 445 rmoveto
          -930 25 callsubr
          88 hlineto
          endchar
        </CharString>
        <CharString name="dvB_JHA">
          568 823 317 rmoveto
          -284 hlineto
          -52 1 -14 20 34 vvcurveto
          5 vlineto
          34 15 19 53 vhcurveto
          169 153 113 hlineto
          -699 -267 rmoveto
          168 -133 rlineto
          -35 -6 -23 -19 -55 hhcurveto
          -65 -19 28 45 hvcurveto
          876 453 rmoveto
          -1028 -72 653 -78 -84 hlineto
          -103 261 callgsubr
          -20 3 -18 5 -15 vhcurveto
          -103 -71 hlineto
          -166 132 rlineto
          29 7 23 17 51 hhcurveto
          26 23 -4 0 hvcurveto
          72 vlineto
          0 -25 5 -29 -115 -46 -51 -92 vhcurveto
          -155 vlineto
          -91 50 -51 116 118 40 57 80 vhcurveto
          49 198 vlineto
          57 330 callsubr
          -26 2 6 -18 293 callgsubr
          101 49 40 91 hvcurveto
          40 vlineto
          29 -9 23 -16 13 vhcurveto
          128 -248 -38 callsubr
        </CharString>
        <CharString name="dvB_J_YA">
          770 177 -2 callgsubr
          -2 -72 2 hlineto
          116 -247 rmoveto
          24 -67 65 -41 vhcurveto
          -23 5 -6 -5 4 -12 rrcurveto
          22 111 -141 -19 hvcurveto
          -169 -19 rmoveto
          -26 65 -63 43 vhcurveto
          24 -5 7 5 -4 14 rrcurveto
          -22 -113 143 19 hvcurveto
          247 -119 rmoveto
          -35 -3 -26 80 -53 hhcurveto
          -60 44 -48 51 -58 48 rrcurveto
          -49 -26 13 -28 -5 hvcurveto
          17 4 22 -69 57 hhcurveto
          56 -43 53 -50 55 -49 rrcurveto
          55 23 -15 36 3 hvcurveto
          654 -27 189 callgsubr
          2 46 36 81 vvcurveto
          63 vlineto
          40 -8 23 0 vhcurveto
          109 235 callgsubr
          -909 -72 540 306 callgsubr
          -42 -14 -18 -39 -7 vhcurveto
          64 -5 -46 27 -84 hhcurveto
          -218 -77 84 hlineto
          8 callgsubr
          -146 vlineto
          -45 -25 -26 -59 -34 -61 15 7 -25 vhcurveto
          -27 -74 rlineto
          -10 31 67 -16 52 hhcurveto
          107 59 51 96 hvcurveto
          151 vlineto
          42 -8 22 0 vhcurveto
          28 hlineto
          59 24 -7 -43 hvcurveto
          -110 84 callgsubr
        </CharString>
        <CharString name="dvB_JxA">
          474 317 15 rmoveto
          -39 -12 -22 -28 -29 11 -22 39 38 13 116 callgsubr
          -38 hvcurveto
          -24 214 50 callsubr
          783 445 rmoveto
          -935 25 callsubr
          93 hlineto
          endchar
        </CharString>
        <CharString name="dvB_LA">
          475 124 324 75 callgsubr
          783 445 rmoveto
          -935 -72 758 -111 hlineto
          7 callgsubr
          -94 49 callsubr
          42 33 8 14 25 vhcurveto
          -57 21 52 -30 90 hhcurveto
          25 20 2 3 16 hvcurveto
          -89 callgsubr
        </CharString>
        <CharString name="dvB_L_YA">
          768 1023 72 callsubr
          -900 -259 rmoveto
          169 -132 rlineto
          -35 -6 -23 -19 -55 hhcurveto
          -66 250 callsubr
          1077 445 rmoveto
          -1228 -72 859 hlineto
          283 callsubr
          -42 -14 -18 -40 -7 vhcurveto
          58 -15 -43 35 -77 hhcurveto
          -52 -30 331 callsubr
          -45 -53 -87 hvcurveto
          -90 112 callsubr
          -115 -47 94 callgsubr
          51 -51 115 41 32 8 14 24 vhcurveto
          -57 21 49 -30 90 hhcurveto
          13 43 1 1 7 hvcurveto
          77 vlineto
          -1 -8 -42 -1 -9 hhcurveto
          -78 -16 -53 callsubr
          11 27 55 54 11 -27 -36 vhcurveto
          -133 85 133 vlineto
          38 11 25 49 55 8 -25 -38 vhcurveto
          -82 vlineto
          -129 92 -46 115 42 38 110 callsubr
        </CharString>
        <CharString name="dvB_NA">
          421 487 192 -103 callgsubr
          -363 -18 rmoveto
          160 -124 rlineto
          -37 -4 -21 -19 -55 hhcurveto
          -63 -17 27 45 hvcurveto
          161 47 rmoveto
          -158 123 rlineto
          29 6 21 17 50 hhcurveto
          64 17 -24 -48 hvcurveto
          568 301 rmoveto
          -881 -72 704 -101 -249 hlineto
          -44 -33 -9 -17 -23 hvcurveto
          27 -24 -39 16 -61 hhcurveto
          -115 -46 -51 -91 hvcurveto
          -149 vlineto
          -92 46 -51 115 51 37 12 20 24 vhcurveto
          -26 23 37 -13 52 hhcurveto
          98 43 47 87 hvcurveto
          -46 callgsubr
        </CharString>
        <CharString name="dvB_R">
          -166 126 327 rmoveto
          168 -123 rlineto
          -34 -5 -24 -19 -54 hhcurveto
          -65 -20 28 45 hvcurveto
          170 42 rmoveto
          -167 121 rlineto
          30 8 23 16 51 hhcurveto
          64 21 -25 -48 hvcurveto
          -251 -139 rmoveto
          -85 43 -49 103 -6 vhcurveto
          -159 -154 rlineto
          109 hlineto
          148 144 rlineto
          54 53 31 29 68 vvcurveto
          142 vlineto
          93 -50 49 -113 -120 -46 -51 -91 vhcurveto
          -73 292 rmoveto
          -72 423 72 vlineto
          endchar
        </CharString>
        <CharString name="dvB_RA">
          33 127 116 callsubr
          -321 235 rmoveto
          -72 321 -90 vlineto
          5 -13 -29 7 -43 hhcurveto
          -107 -56 -43 -97 hvcurveto
          -141 vlineto
          -87 47 -35 87 -7 vhcurveto
          -139 -143 rlineto
          102 hlineto
          145 151 6 2 rlineto
          -105 80 21 callsubr
        </CharString>
        <CharString name="dvB_SA">
          448 704 355 -60 callsubr
          -580 -259 rmoveto
          170 -134 rlineto
          -10 vlineto
          -27 -9 -24 -15 -50 hhcurveto
          -68 250 callsubr
          757 445 rmoveto
          -909 -72 525 hlineto
          -93 callsubr
          121 -85 -196 vlineto
          -167 132 rlineto
          30 7 22 17 52 hhcurveto
          17 14 -3 0 hvcurveto
          73 vlineto
          0 -17 2 -19 -115 48 callgsubr
          118 40 32 7 13 24 vhcurveto
          -58 23 60 -32 87 hhcurveto
          59 133 callgsubr
          hvcurveto
          -42 callsubr
        </CharString>
        <CharString name="dvB_SHA">
          446 243 -2 callgsubr
          -271 -72 271 hlineto
          -119 -259 75 callgsubr
          262 270 rmoveto
          -2 5 -2 15 18 vvcurveto
          36 14 28 58 57 14 -27 -36 vhcurveto
          -133 vlineto
          -36 -14 -26 -57 -29 -27 6 5 -16 vhcurveto
          69 -85 -153 vlineto
          -170 135 72 callgsubr
          43 33 8 15 25 vhcurveto
          -56 24 58 -34 84 hhcurveto
          56 38 8 10 32 hvcurveto
          79 vlineto
          -11 -35 -32 -9 -49 hhcurveto
          -69 -36 127 callgsubr
          17 28 -6 34 hhcurveto
          102 304 callsubr
          -49 52 -107 -107 -50 -52 -87 -16 3 -19 1 -6 vhcurveto
          400 175 rmoveto
          -655 13 callgsubr
        </CharString>
        <CharString name="dvB_TA">
          288 124 324 75 callgsubr
          597 445 rmoveto
          -749 -72 571 302 callsubr
          -106 -51 -56 -87 hvcurveto
          -108 49 callsubr
          39 31 7 12 23 vhcurveto
          -54 13 40 -31 79 hhcurveto
          -55 callsubr
          vlineto
          endchar
        </CharString>
        <CharString name="dvB_VA">
          277 535 -90 callgsubr
          -411 -97 rmoveto
          168 -132 rlineto
          -35 -6 -22 -19 -53 hhcurveto
          -68 250 callsubr
          586 445 rmoveto
          -738 -72 560 -89 hlineto
          190 callgsubr
          -112 vlineto
          -167 132 72 callgsubr
          55 38 14 25 25 vhcurveto
          -25 25 39 -14 55 76 callsubr
        </CharString>
        <CharString name="dvB_YA">
          348 603 -102 callsubr
          -479 -259 75 callgsubr
          657 445 rmoveto
          -809 -72 439 204 callgsubr
          -127 hlineto
          -6 vlineto
          -166 132 72 callgsubr
          72 45 23 40 22 vhcurveto
          -31 38 54 -12 59 -11 callsubr
        </CharString>
        <CharString name="dvC">
          299 callgsubr
          9 -434 rmoveto
          -8 -24 -37 -6 -28 hhcurveto
          -56 -25 154 callgsubr
          -258 -76 79 267 callgsubr
          49 -50 106 33 44 7 7 23 vhcurveto
          endchar
        </CharString>
        <CharString name="dvCA">
          65 168 332 rmoveto
          193 callgsubr
          -259 -76 80 267 callgsubr
          47 -50 106 33 28 5 7 23 vhcurveto
          -71 249 callgsubr
          -525 -72 348 -436 vlineto
          330 callgsubr
          endchar
        </CharString>
        <CharString name="dvCH">
          115 328 496 rmoveto
          -36 1 -31 -10 0 vvcurveto
          -73 vlineto
          0 22 10 30 59 15 -24 -47 vhcurveto
          -180 146 callgsubr
          336 72 -575 122 callgsubr
          194 vlineto
          81 -44 51 -98 vhcurveto
          endchar
        </CharString>
        <CharString name="dvCHA">
          116 58 385 rmoveto
          140 callgsubr
          148 72 -576 -72 96 vlineto
          0 -10 -32 callsubr
          85 hmoveto
          155 callsubr
          -37 -26 -8 0 hvcurveto
          -73 vlineto
          0 23 9 32 56 15 -24 -47 vhcurveto
          -180 vlineto
          -7 callgsubr
          endchar
        </CharString>
        <CharString name="dvCH_RA">
          116 385 173 -56 callgsubr
          163 230 rmoveto
          72 -576 -72 96 vlineto
          129 callgsubr
          0 5 vlineto
          243 callgsubr
          63 -19 41 -49 16 vhcurveto
          99 vlineto
          endchar
        </CharString>
        <CharString name="dvCH_R_YA">
          619 878 142 callgsubr
          1 vlineto
          78 46 35 81 hvcurveto
          19 vlineto
          87 -44 41 -101 vhcurveto
          -231 86 478 hlineto
          -493 -410 -56 callgsubr
          670 302 rmoveto
          -1083 -72 96 hlineto
          129 callgsubr
          5 hlineto
          243 callgsubr
          21 -2 19 -5 16 vhcurveto
          172 hlineto
          50 10 -21 -35 hvcurveto
          -11 vlineto
          -44 -20 -11 -60 vhcurveto
          -45 -63 83 callgsubr
        </CharString>
        <CharString name="dvCH_YA">
          607 862 273 callgsubr
          78 47 35 80 hvcurveto
          15 vlineto
          87 -45 41 -100 vhcurveto
          -201 hlineto
          13 -22 -29 7 -36 hhcurveto
          -36 -31 -10 0 hvcurveto
          -73 vlineto
          0 22 10 30 59 15 -24 -46 vhcurveto
          -198 146 callgsubr
          651 338 callsubr
          -1068 122 callgsubr
          211 vlineto
          12 -1 12 -2 11 vhcurveto
          151 hlineto
          49 11 -20 -36 hvcurveto
          -6 177 callsubr
        </CharString>
        <CharString name="dvC_CA">
          312 744 -2 callgsubr
          -772 -72 595 -436 hlineto
          -8 -24 -21 -4 -28 hhcurveto
          -56 -23 154 callgsubr
          -223 -74 44 hlineto
          0 -9 -29 -49 vvcurveto
          -132 vlineto
          -20 2 -19 5 -16 vhcurveto
          -6 -23 -28 -4 -31 hhcurveto
          -58 -29 20 48 191 callgsubr
          61 74 -228 -76 80 267 callgsubr
          60 -50 106 54 51 13 11 28 vhcurveto
          -16 25 33 -8 43 hhcurveto
          33 29 5 7 22 hvcurveto
          121 callsubr
        </CharString>
        <CharString name="dvC_CHA">
          399 669 173 -56 callgsubr
          163 230 rmoveto
          72 -860 -72 380 vlineto
          224 callgsubr
          -6 0 -6 1 -5 vhcurveto
          -7 -24 -28 -5 -32 63 callgsubr
          45 39 9 8 27 vhcurveto
          -43 29 59 -19 99 hhcurveto
          153 54 45 111 hvcurveto
          168 callgsubr
          vlineto
          endchar
        </CharString>
        <CharString name="dvC_CH_VA">
          400 617 -138 rmoveto
          -7 -26 -24 -3 -34 hhcurveto
          -62 -22 23 41 hvcurveto
          33 vlineto
          41 20 24 63 vhcurveto
          0 14 vlineto
          27 23 1 3 21 hvcurveto
          -195 173 rmoveto
          41 18 20 58 vhcurveto
          58 75 -60 222 callsubr
          24 35 vvcurveto
          133 vlineto
          41 11 22 0 vhcurveto
          168 209 callsubr
          -102 -103 -21 17 59 vhcurveto
          410 416 rmoveto
          72 -860 -72 381 vlineto
          0 -11 -32 callsubr
          -135 vlineto
          205 callgsubr
          -6 0 -6 1 -5 vhcurveto
          -6 -24 -29 -6 -32 63 callgsubr
          45 40 9 8 27 vhcurveto
          11 -17 17 -14 23 -10 rrcurveto
          -26 -18 -16 -27 -41 vvcurveto
          -35 vlineto
          -91 58 -43 102 36 28 3 7 25 vhcurveto
          -56 85 313 vlineto
          35 25 15 40 58 vvcurveto
          194 vlineto
          63 -18 41 -50 16 vhcurveto
          99 vlineto
          endchar
        </CharString>
        <CharString name="dvC_MA">
          474 731 434 -9 callsubr
          372 293 rmoveto
          -935 -72 563 199 callgsubr
          -104 -42 -45 -82 hvcurveto
          -118 vlineto
          -16 2 -15 3 -13 vhcurveto
          -6 -23 -26 -4 -28 63 callgsubr
          52 50 13 10 26 vhcurveto
          -15 23 31 -7 42 hhcurveto
          134 callgsubr
          hvcurveto
          30 callgsubr
        </CharString>
        <CharString name="dvC_NA">
          462 528 192 -103 callgsubr
          366 319 rmoveto
          -928 -72 751 -101 -249 hlineto
          270 callgsubr
          -158 vlineto
          -17 2 -15 3 -14 vhcurveto
          -6 -25 -29 -5 -30 hhcurveto
          -58 -27 154 callgsubr
          -258 -76 79 267 callgsubr
          58 -50 106 55 47 12 12 29 vhcurveto
          -17 23 32 -8 41 hhcurveto
          98 43 47 87 hvcurveto
          -46 callgsubr
        </CharString>
        <CharString name="dvC_R">
          299 callgsubr
          -161 -251 rmoveto
          193 callgsubr
          -258 -76 79 196 callgsubr
          -119 vlineto
          -91 49 -50 112 vhcurveto
          1 hlineto
          -150 -132 rlineto
          106 hlineto
          150 137 rlineto
          83 vlineto
          -7 -24 -29 -5 -40 hhcurveto
          -65 -25 22 45 hvcurveto
          endchar
        </CharString>
        <CharString name="dvC_RA">
          67 -28 -2 callgsubr
          -72 350 -395 vlineto
          -8 -25 -20 -3 -29 hhcurveto
          -56 -23 22 45 hvcurveto
          88 vlineto
          193 callgsubr
          -254 -76 75 hlineto
          0 -8 -27 -49 vvcurveto
          -85 vlineto
          -81 37 -49 82 -9 vhcurveto
          -136 -146 rlineto
          103 hlineto
          145 154 6 2 rlineto
          -118 13 callgsubr
        </CharString>
        <CharString name="dvC_YA">
          388 643 -102 callsubr
          178 72 rmoveto
          -849 -72 479 204 callgsubr
          -127 hlineto
          -39 8 -31 15 -25 vhcurveto
          -10 -30 -35 -8 -37 hhcurveto
          -58 -28 22 45 hvcurveto
          118 vlineto
          193 callgsubr
          -259 -76 80 196 callgsubr
          -120 vlineto
          -91 59 -50 111 76 55 23 17 31 vhcurveto
          -18 35 43 -8 47 -11 callsubr
        </CharString>
        <CharString name="dvCandrabindu">
          -404 -155 902 rmoveto
          -28 11 -20 38 37 11 20 28 28 -11 21 -37 -38 -11 -21 -28 vhcurveto
          139 -46 rmoveto
          -47 -27 -15 -63 93 callgsubr
          3 vlineto
          endchar
        </CharString>
        <CharString name="dvD">
          7 473 32 callgsubr
          -343 422 rmoveto
          -63 callgsubr
          148 324 callgsubr
          hlineto
          -107 -50 -41 -93 hvcurveto
          endchar
        </CharString>
        <CharString name="dvDA">
          7 40 209 rmoveto
          -63 callgsubr
          148 324 callgsubr
          hlineto
          -107 -50 -41 -93 hvcurveto
          endchar
        </CharString>
        <CharString name="dvDA_mvR">
          214 callsubr
          -104 vlineto
          -89 53 -50 103 30 26 3 7 24 vhcurveto
          -52 -5 vlineto
          -95 -53 -43 -100 -101 63 -42 95 30 20 1 5 31 hvcurveto
          80 vlineto
          -4 -28 -23 -3 -28 hhcurveto
          -42 -35 6 58 57 33 6 41 22 26 -3 -3 30 hvcurveto
          295 -83 -82 vlineto
          -4 -18 -21 -4 -32 hhcurveto
          -58 -21 25 39 hvcurveto
          99 143 callsubr
        </CharString>
        <CharString name="dvDD">
          13 364 32 callgsubr
          102 374 -35 callsubr
        </CharString>
        <CharString name="dvDDA">
          12 376 161 -35 callsubr
        </CharString>
        <CharString name="dvDDH">
          11 368 32 callgsubr
          -74 715 rmoveto
          -107 -48 -44 -91 hvcurveto
          -226 vlineto
          -93 51 -53 112 113 49 51 93 vhcurveto
          -49 callsubr
          140 168 callsubr
          hlineto
          endchar
        </CharString>
        <CharString name="dvDDHA">
          11 204 502 rmoveto
          -107 -48 -44 -91 hvcurveto
          -226 vlineto
          -93 51 -53 112 113 49 51 93 vhcurveto
          -49 callsubr
          140 168 callsubr
          hlineto
          endchar
        </CharString>
        <CharString name="dvDDH_DDHA">
          26 347 428 rmoveto
          155 112 72 -487 -72 291 -81 -55 vlineto
          -108 -48 -43 -88 hvcurveto
          -161 vlineto
          -46 14 -36 29 -24 vhcurveto
          -30 -22 -14 -34 -45 vvcurveto
          -147 vlineto
          -90 55 -51 323 callgsubr
          53 49 90 vhcurveto
          14 241 callsubr
          -42 vhcurveto
          -9 vlineto
          -39 329 callsubr
          44 16 23 62 vhcurveto
          7 hlineto
          112 53 49 91 hvcurveto
          14 vlineto
          85 -51 38 -75 -30 -21 -8 0 vhcurveto
          -67 vlineto
          0 14 8 25 34 22 -15 -43 vhcurveto
          -9 vlineto
          -40 -15 -29 -68 -69 -14 30 39 vhcurveto
          158 vlineto
          38 14 21 57 vhcurveto
          endchar
        </CharString>
        <CharString name="dvDDH_R">
          11 183 142 callsubr
          84 583 rmoveto
          168 callsubr
          -56 vlineto
          258 callsubr
          -67 27 -46 56 -21 vhcurveto
          -73 -140 rlineto
          88 hlineto
          62 128 rlineto
          3 hlineto
          6 hlineto
          62 -128 rlineto
          88 hlineto
          -74 141 rlineto
          55 20 25 105 callgsubr
        </CharString>
        <CharString name="dvDDH_RA">
          11 344 424 rmoveto
          168 callsubr
          -56 vlineto
          258 callsubr
          -67 26 -46 56 -21 vhcurveto
          -72 -138 253 callgsubr
          139 rlineto
          55 20 24 105 callgsubr
        </CharString>
        <CharString name="dvDDH_YA">
          504 759 273 callgsubr
          79 46 35 80 hvcurveto
          23 vlineto
          87 -45 41 -100 vhcurveto
          -169 81 415 338 callsubr
          -965 -72 288 -81 -56 hlineto
          -107 -48 -44 -91 hvcurveto
          -226 vlineto
          -93 51 -53 112 113 49 51 93 vhcurveto
          -49 callsubr
          311 hlineto
          49 11 -21 -35 hvcurveto
          -14 177 callsubr
        </CharString>
        <CharString name="dvDDHxA">
          11 204 502 rmoveto
          223 callsubr
          -49 38 -77 -29 -20 -8 0 vhcurveto
          -76 vlineto
          0 13 8 25 32 22 -15 -42 vhcurveto
          -33 vlineto
          -41 -15 -28 -64 -64 -15 29 41 vhcurveto
          222 vlineto
          36 13 23 58 vhcurveto
          140 168 callsubr
          hlineto
          -99 -631 rmoveto
          -18 callgsubr
          -39 310 callgsubr
          endchar
        </CharString>
        <CharString name="dvDD_DDA">
          26 242 callsubr
          -36 -77 hvcurveto
          -8 vlineto
          -89 56 -26 96 vhcurveto
          33 hlineto
          50 16 -15 -34 241 callgsubr
          14 -3 rrcurveto
          -11 -18 -6 -22 -24 vvcurveto
          -89 63 -26 84 vhcurveto
          30 hlineto
          51 15 -16 -34 hvcurveto
          -13 vlineto
          -42 -22 -14 -72 -47 -65 9 10 -46 vhcurveto
          -73 vlineto
          -10 45 57 -9 56 hhcurveto
          124 57 37 91 hvcurveto
          233 callgsubr
          -48 -15 14 34 37 16 13 47 hvcurveto
          0 4 vlineto
          124 57 37 91 hvcurveto
          233 callgsubr
          -47 -15 14 33 hvcurveto
          4 vlineto
          34 15 13 47 vhcurveto
          endchar
        </CharString>
        <CharString name="dvDD_DDHA">
          25 242 callsubr
          -35 -83 hvcurveto
          -4 vlineto
          -88 56 -26 96 vhcurveto
          33 hlineto
          50 16 -16 -33 241 callgsubr
          16 -3 rrcurveto
          -20 -23 -10 -30 -36 vvcurveto
          -133 vlineto
          -91 55 -51 323 callgsubr
          53 49 91 vhcurveto
          13 241 callsubr
          -41 vhcurveto
          -9 vlineto
          -40 329 callsubr
          42 15 24 54 1 vhcurveto
          0 4 vlineto
          123 58 36 92 hvcurveto
          233 callgsubr
          -47 -15 14 34 37 15 13 47 hvcurveto
          endchar
        </CharString>
        <CharString name="dvDD_R">
          11 172 142 callsubr
          94 589 104 callsubr
          23 -5 23 -5 24 -2 -69 -132 rcurveline
          88 hlineto
          62 128 9 1 62 -129 rlineto
          88 hlineto
          -75 142 rlineto
          57 21 28 43 63 vvcurveto
          117 callsubr
        </CharString>
        <CharString name="dvDD_RA">
          13 346 430 104 callsubr
          22 -5 22 -4 24 225 callgsubr
          55 21 27 42 63 vvcurveto
          117 callsubr
        </CharString>
        <CharString name="dvDD_VA">
          30 280 -75 rmoveto
          -5 -17 -22 -4 -30 hhcurveto
          -53 -17 21 36 hvcurveto
          36 vlineto
          40 12 21 46 4 vhcurveto
          11 hlineto
          26 24 2 3 20 hvcurveto
          81 355 rmoveto
          149 100 72 -489 -72 302 -81 -68 vlineto
          -103 -50 -36 -77 hvcurveto
          -8 vlineto
          -89 55 -26 97 vhcurveto
          33 hlineto
          51 15 -16 -34 hvcurveto
          -12 vlineto
          -45 -27 -12 -67 -47 -77 8 10 -49 vhcurveto
          -72 vlineto
          13 -3 16 -3 16 -3 rrcurveto
          -14 -18 -9 -23 -30 vvcurveto
          -41 vlineto
          -85 48 -40 96 32 28 6 5 17 vhcurveto
          -59 80 316 vlineto
          21 20 10 29 38 vvcurveto
          233 callgsubr
          -47 -16 14 33 hvcurveto
          4 vlineto
          34 16 13 47 vhcurveto
          endchar
        </CharString>
        <CharString name="dvDD_YA">
          504 759 150 rmoveto
          -6 -32 -35 -5 -42 318 callgsubr
          3 vlineto
          78 47 35 80 hvcurveto
          29 vlineto
          86 -45 39 -101 vhcurveto
          -166 78 413 235 callgsubr
          -964 17 callgsubr
          28 vlineto
          -33 callsubr
          315 hlineto
          50 10 -21 -35 hvcurveto
          -20 vlineto
          -44 -19 -11 -61 vhcurveto
          -45 -64 83 callgsubr
        </CharString>
        <CharString name="dvDDxA">
          13 162 -129 rmoveto
          -28 12 -22 38 39 159 callsubr
          -39 -38 310 callgsubr
          214 290 -35 callsubr
        </CharString>
        <CharString name="dvDH">
          -113 366 154 rmoveto
          -8 -27 -51 -8 -40 hhcurveto
          -66 -42 -15 callgsubr
          10 22 0 vhcurveto
          61 72 -245 -72 97 hlineto
          0 -8 -21 -42 65 callsubr
          -55 vlineto
          -98 72 -52 113 45 50 8 8 31 vhcurveto
          endchar
        </CharString>
        <CharString name="dvDHA">
          92 71 583 rmoveto
          128 callgsubr
          -177 -504 vlineto
          -7 -27 -30 -6 -42 hhcurveto
          -67 -41 -15 callgsubr
          12 22 0 vhcurveto
          87 72 -273 -72 hlineto
          endchar
        </CharString>
        <CharString name="dvDH_MA">
          496 752 210 callsubr
          -195 -392 rmoveto
          -36 -10 93 callsubr
          64 hlineto
          -225 293 rmoveto
          -72 225 -149 -64 vlineto
          -104 -43 -45 -82 hvcurveto
          -118 vlineto
          -13 1 -12 2 -12 vhcurveto
          -7 -30 -34 -5 -35 hhcurveto
          -69 -41 19 61 hvcurveto
          44 vlineto
          35 249 callsubr
          79 103 callsubr
          58 259 callsubr
          -245 -72 97 hlineto
          0 -8 -21 -42 65 callsubr
          -54 vlineto
          -97 71 -52 121 58 48 13 11 36 vhcurveto
          -18 23 35 -9 46 hhcurveto
          134 callgsubr
          hvcurveto
          173 113 -362 84 21 callsubr
        </CharString>
        <CharString name="dvDH_NA">
          480 546 192 -101 callsubr
          2 -4 8 -27 -38 vvcurveto
          -232 319 rmoveto
          -72 421 -101 -249 vlineto
          292 callsubr
          -8 -30 -34 -5 -34 61 callsubr
          56 49 13 11 35 vhcurveto
          -18 23 33 -9 43 hhcurveto
          98 44 47 87 hvcurveto
          146 vlineto
          37 -10 27 3 vvcurveto
          117 -405 240 callsubr
        </CharString>
        <CharString name="dvDH_N_YA">
          794 1049 -102 callsubr
          -500 -391 rmoveto
          -36 -13 -21 -47 -48 -13 -1 callgsubr
          150 295 callgsubr
          678 325 rmoveto
          -889 -72 519 102 callsubr
          -43 -15 -18 -42 -6 vhcurveto
          60 -15 -54 27 -78 hhcurveto
          -172 hlineto
          -98 -45 -46 -87 hvcurveto
          -152 vlineto
          -15 1 -14 3 -13 vhcurveto
          -7 -31 -34 -5 -35 61 callsubr
          57 51 13 10 35 vhcurveto
          -17 24 32 -9 43 hhcurveto
          98 43 47 87 hvcurveto
          140 192 callgsubr
          42 hlineto
          47 30 -12 -37 hvcurveto
          -90 107 callgsubr
          93 vlineto
          endchar
        </CharString>
        <CharString name="dvDH_R">
          -113 140 271 rmoveto
          65 callgsubr
          51 286 callgsubr
          70 72 -254 156 callsubr
          -53 218 callgsubr
          -39 140 callsubr
        </CharString>
        <CharString name="dvDH_RA">
          93 348 -2 callgsubr
          -484 vlineto
          245 callgsubr
          26 vlineto
          278 callsubr
          57 vlineto
          41 9 22 0 vhcurveto
          90 72 -275 -72 98 hlineto
          247 callsubr
          -59 vlineto
          -45 11 -34 39 -17 vhcurveto
          136 callsubr
        </CharString>
        <CharString name="dvDH_VA">
          330 588 -14 callsubr
          -256 234 -43 callsubr
          -245 -72 97 hlineto
          0 -8 -21 -42 vvcurveto
          -49 vlineto
          -45 12 -34 38 -17 vhcurveto
          40 callgsubr
        </CharString>
        <CharString name="dvDH_YA">
          401 656 -102 callsubr
          -324 72 -12 callgsubr
          -245 -72 97 hlineto
          0 -8 -21 -42 vvcurveto
          -49 vlineto
          -45 12 -34 38 -17 vhcurveto
          34 callsubr
        </CharString>
        <CharString name="dvD_BA">
          30 296 18 rmoveto
          -5 vlineto
          -141 109 rlineto
          7 12 16 4 23 hhcurveto
          25 45 3 8 20 hvcurveto
          -167 -80 rmoveto
          5 0 4 1 5 vhcurveto
          147 -116 rlineto
          -11 -12 -20 -6 -32 hhcurveto
          -69 -15 30 43 hvcurveto
          236 405 rmoveto
          160 98 72 -491 311 callgsubr
          -109 vlineto
          -46 15 -32 30 -20 vhcurveto
          -28 -19 -17 -31 -48 vvcurveto
          -47 vlineto
          -91 48 -51 117 117 48 53 91 vhcurveto
          306 -82 -114 vlineto
          -4 -20 -34 -4 -28 hhcurveto
          -62 -19 25 38 hvcurveto
          96 vlineto
          39 16 25 62 vhcurveto
          endchar
        </CharString>
        <CharString name="dvD_BHA">
          121 136 -93 rmoveto
          -11 16 -4 19 28 21 36 25 rcurveline
          33 -45 11 -16 4 -19 -29 -20 rlinecurve
          -30 -22 -17 11 -10 16 rrcurveto
          310 530 rmoveto
          160 96 72 -581 -72 401 157 callsubr
          -105 vlineto
          -80 43 -48 82 -9 vhcurveto
          -73 -53 -43 59 -34 48 -49 8 -56 -42 rlinecurve
          -57 -40 -9 -49 34 -49 16 -21 rcurveline
          52 37 -16 22 -10 15 -3 17 28 20 rlinecurve
          26 20 15 -8 12 -16 42 -58 rcurveline
          -36 -27 -58 -42 -8 -49 33 -45 rlinecurve
          13 -17 32 -46 49 -10 60 43 rlinecurve
          58 42 6 50 -32 46 -34 46 rcurveline
          146 104 6 2 rlineto
          -96 83 266 -83 -94 vlineto
          -5 207 callgsubr
          -59 -21 25 39 hvcurveto
          100 143 callsubr
        </CharString>
        <CharString name="dvD_B_RA">
          28 296 85 rmoveto
          -9 vlineto
          -138 95 rlineto
          6 12 15 3 21 hhcurveto
          28 42 5 9 20 hvcurveto
          -167 -83 rmoveto
          6 0 6 1 6 vhcurveto
          146 -100 -5 -5 -7 -3 -7 -3 rlinecurve
          -13 hlineto
          -4 -4 rlineto
          -1 -8 -9 -1 -10 hhcurveto
          -69 -15 31 42 hvcurveto
          236 338 rmoveto
          160 95 72 -488 311 callgsubr
          -62 vlineto
          -45 15 -32 30 -20 vhcurveto
          -27 -20 -17 -31 -47 vvcurveto
          -28 vlineto
          -82 38 -44 89 -8 vhcurveto
          -105 -108 rlineto
          102 hlineto
          115 121 8 4 rlineto
          -74 82 438 -82 -68 vlineto
          -6 -17 -29 -7 -36 hhcurveto
          -62 -19 25 39 hvcurveto
          48 vlineto
          39 16 25 62 vhcurveto
          endchar
        </CharString>
        <CharString name="dvD_DA">
          12 351 437 rmoveto
          146 94 72 -473 -72 295 -77 -72 vlineto
          -102 -46 -41 -85 hvcurveto
          -12 vlineto
          -45 15 -30 29 -18 vhcurveto
          -29 -19 -15 -30 -45 vvcurveto
          -53 vlineto
          -82 52 -47 103 37 26 6 4 17 vhcurveto
          -76 83 228 -83 -80 vlineto
          -4 -15 -25 -6 -32 hhcurveto
          -58 -20 23 36 hvcurveto
          49 vlineto
          36 236 callsubr
          97 73 -97 hlineto
          -58 -14 23 36 hvcurveto
          8 vlineto
          36 236 callsubr
          endchar
        </CharString>
        <CharString name="dvD_DHA">
          168 509 289 callgsubr
          91 72 -628 -72 452 303 callgsubr
          -157 vlineto
          263 callsubr
          9 vlineto
          224 callsubr
          16 67 -16 hlineto
          52 callsubr
        </CharString>
        <CharString name="dvD_GA">
          19 354 289 callgsubr
          97 72 -479 -72 298 157 callsubr
          -134 vlineto
          -62 25 -43 50 -20 vhcurveto
          -64 vlineto
          -38 -6 -23 -51 -11 -16 3 0 vhcurveto
          -74 vlineto
          0 16 -4 22 97 29 42 88 vhcurveto
          56 vlineto
          30 26 4 6 24 hvcurveto
          -263 83 444 -83 -107 vlineto
          -4 -19 -19 -3 -33 hhcurveto
          -58 -22 25 39 hvcurveto
          129 vlineto
          37 15 23 58 vhcurveto
          endchar
        </CharString>
        <CharString name="dvD_GHA">
          170 88 62 rmoveto
          224 callsubr
          59 -83 hlineto
          263 callsubr
          421 370 rmoveto
          160 93 72 -630 -72 452 303 callgsubr
          -7 -59 vlineto
          52 callsubr
        </CharString>
        <CharString name="dvD_G_RA">
          16 352 289 callgsubr
          95 72 -475 -72 295 303 callgsubr
          -90 vlineto
          -60 24 -42 47 -21 vhcurveto
          -48 vlineto
          -38 -6 -23 -52 -10 -16 2 0 vhcurveto
          -72 vlineto
          0 14 -5 24 96 30 42 88 vhcurveto
          38 5 vlineto
          30 25 3 8 25 290 callsubr
          -208 -229 rlineto
          94 hlineto
          26 27 58 62 29 37 7 16 rlinecurve
          1 hlineto
          -2 -8 -1 -28 -24 vvcurveto
          -42 79 474 -83 -100 vlineto
          -4 -19 -20 -4 -32 hhcurveto
          -59 -21 25 40 hvcurveto
          85 vlineto
          37 14 23 59 vhcurveto
          endchar
        </CharString>
        <CharString name="dvD_MA">
          241 497 115 rmoveto
          -133 201 -80 -83 hlineto
          -2 -10 -29 -9 -39 hhcurveto
          -62 -19 25 36 hvcurveto
          78 vlineto
          37 14 25 62 vhcurveto
          152 160 144 hlineto
          176 72 rmoveto
          -701 -72 296 -83 -67 hlineto
          -111 -50 -43 -94 hvcurveto
          -80 vlineto
          -86 53 -50 105 32 37 6 7 17 vhcurveto
          -171 80 53 133 -116 84 657 92 vlineto
          endchar
        </CharString>
        <CharString name="dvD_NA">
          214 callsubr
          -141 vlineto
          -77 40 -42 78 -10 vhcurveto
          -64 -47 -71 -54 -5 -58 37 -42 rlinecurve
          25 -29 42 -2 0 vvcurveto
          55 47 rlineto
          0 -33 6 -15 18 vhcurveto
          -18 22 3 22 33 26 128 97 rcurveline
          -108 83 272 -83 -96 vlineto
          -5 207 callgsubr
          -58 -22 25 40 hvcurveto
          136 143 callsubr
        </CharString>
        <CharString name="dvD_R">
          9 361 -6 rmoveto
          255 -84 -63 vlineto
          -14 -18 -15 -7 -38 hhcurveto
          -58 -21 25 39 hvcurveto
          134 195 callgsubr
          148 308 callsubr
          -471 -72 292 -83 -63 hlineto
          -106 -51 -41 -93 hvcurveto
          -139 vlineto
          -80 43 -41 84 -8 vhcurveto
          -131 -165 rlineto
          98 hlineto
          137 175 4 1 rlineto
          -115 vlineto
          88 -57 rmoveto
          -77 hlineto
          319 callgsubr
          endchar
        </CharString>
        <CharString name="dvD_RA">
          9 348 289 callgsubr
          95 72 -471 -72 291 -83 -63 vlineto
          -106 -51 -41 -93 hvcurveto
          -136 20 callsubr
        </CharString>
        <CharString name="dvD_VA">
          15 282 186 callgsubr
          70 281 rmoveto
          160 96 72 -476 -72 295 157 callsubr
          86 callgsubr
        </CharString>
        <CharString name="dvD_YA">
          83 515 -2 callgsubr
          -543 -72 176 -69 hlineto
          -57 -4 -43 -24 -75 vvcurveto
          -26 vlineto
          -42 12 -34 40 -18 vhcurveto
          -39 -16 -14 -37 -42 vvcurveto
          -17 vlineto
          -98 60 -43 117 46 42 7 7 30 vhcurveto
          -52 81 583 92 vlineto
          -177 hmoveto
          -456 vlineto
          -7 -24 -41 -6 -39 hhcurveto
          -69 -33 12 61 hvcurveto
          10 vlineto
          36 16 26 58 vhcurveto
          32 70 -36 115 callgsubr
          18 vlineto
          42 22 12 45 vhcurveto
          33 122 hlineto
          endchar
        </CharString>
        <CharString name="dvE">
          27 360 93 rmoveto
          -10 -29 -43 -9 -49 hhcurveto
          -72 -21 27 47 hvcurveto
          435 71 callsubr
          -487 -72 89 -437 vlineto
          -102 56 -49 120 53 45 10 10 25 vhcurveto
          endchar
        </CharString>
        <CharString name="dvEcandra">
          27 311 861 rmoveto
          -47 -26 -15 -64 -65 -26 15 47 vhcurveto
          -83 -3 hlineto
          -96 61 -37 113 113 61 37 96 vhcurveto
          3 vlineto
          -38 -768 rmoveto
          -10 -29 -43 -9 -50 hhcurveto
          -66 -23 26 44 hvcurveto
          439 71 callsubr
          -487 -72 89 -441 vlineto
          -97 54 -50 118 54 45 10 10 25 vhcurveto
          endchar
        </CharString>
        <CharString name="dvEight">
          4 callsubr
        </CharString>
        <CharString name="dvEyelash">
          -150 -28 583 rmoveto
          414 72 -414 hlineto
          414 -320 rmoveto
          -183 hlineto
          -64 -36 -1 52 hvcurveto
          -83 -7 hlineto
          -96 70 -22 113 vhcurveto
          183 hlineto
          endchar
        </CharString>
        <CharString name="dvEyelash_HA">
          231 566 431 337 callsubr
          -691 -72 509 -77 -76 vlineto
          -103 -48 -38 -84 hvcurveto
          -7 -57 vlineto
          -65 -36 5 51 hvcurveto
          -83 -6 hlineto
          -97 71 -27 113 vhcurveto
          76 hlineto
          8 -10 10 -9 13 -6 rrcurveto
          -34 -17 -17 -30 -47 vvcurveto
          -48 vlineto
          -88 54 -54 123 52 51 5 9 43 vhcurveto
          73 vlineto
          -9 -48 -39 -3 -55 hhcurveto
          238 callsubr
          78 30 vlineto
          82 -37 42 -93 vhcurveto
          -54 hlineto
          -52 -16 18 33 hvcurveto
          11 vlineto
          33 14 19 52 vhcurveto
          endchar
        </CharString>
        <CharString name="dvEyelash_YA">
          296 551 309 callgsubr
          -24 -35 -5 -40 hhcurveto
          -88 -39 34 69 hvcurveto
          40 vlineto
          80 2 45 36 81 vvcurveto
          94 257 callgsubr
          hlineto
          -579 72 rmoveto
          -72 387 vlineto
          -17 callgsubr
          -81 vlineto
          -57 -25 -13 -79 vhcurveto
          -61 hlineto
          -65 -35 5 51 hvcurveto
          -83 -7 hlineto
          -96 70 -27 113 vhcurveto
          40 -42 hlineto
          -129 92 -39 114 43 38 6 5 22 vhcurveto
          -96 164 callsubr
        </CharString>
        <CharString name="dvFive">
          55 callsubr
        </CharString>
        <CharString name="dvFour">
          137 callgsubr
        </CharString>
        <CharString name="dvG">
          -149 203 583 rmoveto
          80 72 -311 -72 -93 callgsubr
          endchar
        </CharString>
        <CharString name="dvGA">
          80 512 -2 callgsubr
          -540 -72 -93 callgsubr
          260 132 245 callsubr
        </CharString>
        <CharString name="dvGH">
          -121 363 153 rmoveto
          -6 -22 -53 -9 -40 hhcurveto
          -67 9 callgsubr
          192 72 -375 91 callgsubr
          115 44 52 8 7 27 vhcurveto
          endchar
        </CharString>
        <CharString name="dvGHA">
          92 524 -2 callgsubr
          -552 91 callgsubr
          115 44 36 6 7 27 vhcurveto
          -75 139 callgsubr
          vlineto
          -177 hmoveto
          -432 vlineto
          -6 -21 -38 -7 -40 hhcurveto
          -67 9 callgsubr
          endchar
        </CharString>
        <CharString name="dvGH_MA">
          494 750 76 callgsubr
          -104 -42 -45 -82 hvcurveto
          -118 vlineto
          -14 1 -14 3 -12 vhcurveto
          -6 -30 -34 -5 -32 hhcurveto
          -71 9 callgsubr
          399 212 callsubr
          372 293 rmoveto
          -954 91 callgsubr
          123 55 53 13 9 34 vhcurveto
          -16 23 33 -8 44 hhcurveto
          134 callgsubr
          hvcurveto
          30 callgsubr
        </CharString>
        <CharString name="dvGH_NA">
          480 735 176 callsubr
          270 callgsubr
          -158 vlineto
          -16 1 -14 3 -13 vhcurveto
          -6 -29 -35 -5 -32 hhcurveto
          -71 9 callgsubr
          580 hlineto
          -189 -391 -103 callgsubr
          366 319 rmoveto
          -940 91 callgsubr
          123 55 53 12 9 34 vhcurveto
          -17 22 32 -8 42 hhcurveto
          98 43 47 87 hvcurveto
          -46 callgsubr
        </CharString>
        <CharString name="dvGH_R">
          -119 140 268 272 callsubr
          54 vlineto
          41 9 22 0 vhcurveto
          202 72 -385 -72 96 hlineto
          247 callsubr
          -56 218 callgsubr
          -36 140 callsubr
        </CharString>
        <CharString name="dvGH_RA">
          93 142 265 272 callsubr
          57 vlineto
          41 9 22 0 vhcurveto
          191 -412 hlineto
          245 callgsubr
          -170 416 rmoveto
          -72 98 vlineto
          247 callsubr
          -59 vlineto
          -45 11 -34 39 37 callsubr
          -25 vlineto
          -94 64 -51 105 -5 vhcurveto
          -141 -141 rlineto
          111 hlineto
          150 154 rlineto
          2 -105 240 callsubr
        </CharString>
        <CharString name="dvGH_YA">
          399 653 -102 callsubr
          -513 -311 rmoveto
          36 249 callsubr
          79 -38 hlineto
          -57 -12 24 36 hvcurveto
          49 vlineto
          41 9 22 0 vhcurveto
          306 204 callgsubr
          -127 hlineto
          -36 7 -30 13 -23 vhcurveto
          -9 -36 -42 -7 -33 hhcurveto
          -71 -41 20 62 hvcurveto
          691 418 rmoveto
          -859 -72 96 hlineto
          247 callsubr
          -52 vlineto
          -45 12 -33 38 -18 vhcurveto
          -40 -14 -16 -35 -49 vvcurveto
          -45 vlineto
          -99 70 -51 123 62 73 16 17 41 vhcurveto
          -19 35 44 -8 47 -11 callsubr
        </CharString>
        <CharString name="dvG_BA">
          293 387 326 -61 callsubr
          173 235 rmoveto
          -753 -72 -93 callgsubr
          260 349 -90 vlineto
          190 callsubr
          -159 vlineto
          45 callsubr
        </CharString>
        <CharString name="dvG_BHA">
          462 203 583 rmoveto
          57 72 -288 -72 -93 callgsubr
          314 -132 22 callsubr
        </CharString>
        <CharString name="dvG_BH_YA">
          750 -28 583 rmoveto
          -93 callgsubr
          260 50 72 -281 vlineto
          1033 -480 81 callgsubr
          -506 -392 266 callsubr
          94 vlineto
          36 9 21 55 vhcurveto
          64 hlineto
          141 313 rmoveto
          -72 173 vlineto
          283 callsubr
          -50 -20 -17 -61 -3 vhcurveto
          19 -16 -29 9 -44 hhcurveto
          -66 109 hlineto
          87 -45 262 callgsubr
          -22 4 -26 211 callsubr
          24 22 77 callgsubr
          -107 -64 vlineto
          -104 -43 -45 -83 hvcurveto
          -99 vlineto
          -82 43 -47 104 104 42 47 82 vhcurveto
          154 62 vlineto
          32 20 -7 -26 hvcurveto
          -49 vlineto
          58 callsubr
          42 38 280 callgsubr
          72 vlineto
          endchar
        </CharString>
        <CharString name="dvG_DA">
          274 612 423 336 callsubr
          -734 -72 146 180 callsubr
          324 157 callsubr
          -157 vlineto
          -63 callgsubr
          endchar
        </CharString>
        <CharString name="dvG_DHA">
          357 612 655 120 callgsubr
          -538 -72 -93 callgsubr
          260 133 vlineto
          128 callgsubr
          vlineto
          endchar
        </CharString>
        <CharString name="dvG_DH_VA">
          595 853 -14 callsubr
          -256 234 -43 callsubr
          -510 -72 -93 callgsubr
          260 131 vlineto
          235 callsubr
          -49 vlineto
          -45 12 -34 38 -17 vhcurveto
          40 callgsubr
        </CharString>
        <CharString name="dvG_DH_YA">
          666 921 -102 callsubr
          -324 72 -12 callgsubr
          -510 -72 -93 callgsubr
          260 131 vlineto
          235 callsubr
          -49 vlineto
          -45 12 -34 38 -17 vhcurveto
          34 callsubr
        </CharString>
        <CharString name="dvG_GA">
          321 754 -2 callgsubr
          -782 -72 -93 callgsubr
          260 157 180 callsubr
          132 245 callsubr
        </CharString>
        <CharString name="dvG_GHA">
          357 612 151 rmoveto
          -6 -21 -38 -7 -40 hhcurveto
          -67 9 callgsubr
          192 235 callgsubr
          -817 -72 -93 callgsubr
          260 130 vlineto
          247 callsubr
          -63 -10 callgsubr
          -51 vlineto
          -100 70 -50 115 44 36 6 7 27 vhcurveto
          -75 97 callgsubr
        </CharString>
        <CharString name="dvG_JA">
          405 837 -2 callgsubr
          -865 -72 -93 callgsubr
          260 457 -99 -319 -77 107 vlineto
          -98 callgsubr
          126 -410 139 callgsubr
          hlineto
          endchar
        </CharString>
        <CharString name="dvG_LA">
          485 917 -2 callgsubr
          -945 -72 -93 callgsubr
          260 537 -111 vlineto
          6 -16 -21 5 -29 hhcurveto
          -55 -34 -19 -28 -20 hvcurveto
          25 -17 -35 23 -57 hhcurveto
          -100 -48 -53 -87 hvcurveto
          -43 callgsubr
        </CharString>
        <CharString name="dvG_MA">
          439 696 434 -9 callsubr
          372 293 rmoveto
          -900 -72 -93 callgsubr
          260 297 213 callsubr
          114 108 callgsubr
          vlineto
          endchar
        </CharString>
        <CharString name="dvG_NA">
          441 507 192 -103 callgsubr
          366 319 rmoveto
          -901 -72 -93 callgsubr
          260 493 -101 -249 vlineto
          -98 -44 -45 -87 hvcurveto
          -158 vlineto
          6 callsubr
        </CharString>
        <CharString name="dvG_NNA">
          489 541 254 -34 callgsubr
          381 72 rmoveto
          -950 -72 -93 callgsubr
          260 117 82 callsubr
          329 119 -583 84 -16 callsubr
        </CharString>
        <CharString name="dvG_N_YA">
          744 999 72 callsubr
          -498 -391 rmoveto
          -36 -13 -21 -48 -47 -13 -1 callgsubr
          151 vlineto
          36 13 21 47 vhcurveto
          50 hlineto
          2 -4 9 -27 -38 vvcurveto
          675 324 rmoveto
          -1204 -72 -93 callgsubr
          260 604 vlineto
          283 callsubr
          -43 -14 -18 -41 -6 vhcurveto
          60 -16 -53 27 -80 hhcurveto
          -170 hlineto
          -98 -44 -46 -87 hvcurveto
          -152 265 callsubr
          141 192 callgsubr
          40 hlineto
          47 30 -13 -37 hvcurveto
          -90 83 callsubr
        </CharString>
        <CharString name="dvG_R">
          68 callsubr
          endchar
        </CharString>
        <CharString name="dvG_RA">
          77 509 -2 callgsubr
          -537 -72 146 -218 hlineto
          -37 -16 -25 -48 vhcurveto
          -10 -15 2 -5 hhcurveto
          153 callsubr
          223 129 -284 vlineto
          -265 -299 rlineto
          104 hlineto
          76 83 55 58 32 37 8 17 rlinecurve
          -3 -14 -4 -47 -69 vvcurveto
          -65 82 111 callgsubr
        </CharString>
        <CharString name="dvG_R_YA">
          368 624 309 callgsubr
          -24 56 callsubr
          108 338 callsubr
          -830 -72 146 -235 hlineto
          -37 -16 -24 -5 callsubr
          -81 vlineto
          -1 5 23 -2 13 hhcurveto
          90 48 53 85 hvcurveto
          240 229 301 callsubr
          -56 -25 -14 -79 vhcurveto
          -21 -106 hlineto
          -248 -281 rlineto
          103 hlineto
          83 90 37 41 24 30 15 22 rlinecurve
          -71 30 75 -27 87 279 callgsubr
        </CharString>
        <CharString name="dvG_SA">
          471 726 355 -60 callsubr
          177 72 rmoveto
          -931 -72 -93 callgsubr
          260 316 vlineto
          -106 callsubr
          148 -282 139 callgsubr
          hlineto
          endchar
        </CharString>
        <CharString name="dvG_VA">
          288 546 -90 callgsubr
          175 234 rmoveto
          -749 -72 -93 callgsubr
          260 340 -89 vlineto
          190 callgsubr
          -162 vlineto
          -56 callsubr
        </CharString>
        <CharString name="dvG_YA">
          368 623 -102 callsubr
          178 72 rmoveto
          -829 -72 -93 callgsubr
          260 228 vlineto
          -27 callsubr
          -127 hlineto
          -66 callsubr
          93 vlineto
          endchar
        </CharString>
        <CharString name="dvGx">
          -149 203 583 rmoveto
          80 72 -311 -72 -93 callgsubr
          -156 -265 rmoveto
          -18 callgsubr
          -39 310 callgsubr
          endchar
        </CharString>
        <CharString name="dvGxA">
          83 111 106 rmoveto
          -39 -12 -22 -29 -18 callgsubr
          hvcurveto
          404 549 rmoveto
          -540 -72 -93 callgsubr
          260 132 245 callsubr
        </CharString>
        <CharString name="dvGx_R">
          68 callsubr
          63 -403 rmoveto
          -18 callgsubr
          -39 310 callgsubr
          endchar
        </CharString>
        <CharString name="dvGx_RA">
          77 263 -30 rmoveto
          -39 -12 -22 -29 -18 callgsubr
          hvcurveto
          246 685 rmoveto
          -537 -72 146 -218 hlineto
          -37 -16 -25 -48 vhcurveto
          -10 -15 2 -5 hhcurveto
          153 callsubr
          223 129 -284 vlineto
          -265 -299 rlineto
          104 hlineto
          76 83 55 58 32 37 8 17 rlinecurve
          -3 -14 -4 -47 -69 vvcurveto
          -65 82 111 callgsubr
        </CharString>
        <CharString name="dvH">
          -19 465 317 rmoveto
          -266 166 callgsubr
          106 72 -493 -59 callgsubr
          260 hlineto
          endchar
        </CharString>
        <CharString name="dvHA">
          23 46 139 rmoveto
          -92 67 -53 123 59 43 7 11 31 vhcurveto
          -29 callgsubr
          162 152 97 72 -484 -72 302 -77 -77 hlineto
          -102 -48 -38 -84 hvcurveto
          -15 vlineto
          -46 17 -29 33 -16 vhcurveto
          -34 -17 -17 -30 -47 vvcurveto
          endchar
        </CharString>
        <CharString name="dvHA_mU">
          23 269 -6 rmoveto
          49 9 -17 -38 -37 -9 -18 -51 hvcurveto
          -71 hlineto
          -31 -18 6 38 -35 hvcurveto
          -41 42 rlineto
          -103 hlineto
          84 -90 rlineto
          -54 47 42 -16 48 hhcurveto
          88 hlineto
          93 38 37 93 93 -39 36 -90 hvcurveto
          -52 hlineto
          -74 -23 28 43 hvcurveto
          46 285 callgsubr
          41 hlineto
          52 7 -19 -38 hvcurveto
          -24 78 30 vlineto
          82 -36 42 -94 vhcurveto
          -54 166 callgsubr
          97 72 -484 -72 302 -77 -77 hlineto
          -102 -48 -38 -84 hvcurveto
          -15 vlineto
          -46 17 -29 33 -16 vhcurveto
          -34 -17 -17 -30 -47 vvcurveto
          -48 vlineto
          -89 54 -54 127 1 vhcurveto
          endchar
        </CharString>
        <CharString name="dvHA_mUU">
          20 392 -3 rmoveto
          53 -44 -36 19 -68 hhcurveto
          -20 hlineto
          238 callsubr
          77 30 vlineto
          82 -36 42 -93 vhcurveto
          -55 166 callgsubr
          97 72 -481 -72 299 -77 -77 hlineto
          -102 -48 -38 -84 hvcurveto
          -15 vlineto
          -46 17 -29 33 -16 vhcurveto
          -34 -17 -17 -30 -47 vvcurveto
          -48 vlineto
          -58 22 -35 46 -19 vhcurveto
          -21 -16 -10 -26 -39 vvcurveto
          -85 36 -36 87 15 72 2 0 vhcurveto
          71 vlineto
          0 -70 -2 -11 -41 -10 17 33 34 8 17 44 vhcurveto
          27 hlineto
          50 15 -8 -42 35 hvcurveto
          95 -117 rlineto
          98 hlineto
          endchar
        </CharString>
        <CharString name="dvHA_mvR">
          83 127 201 rmoveto
          34 17 20 53 vhcurveto
          131 hlineto
          35 16 -5 -33 -33 -16 -4 -35 hvcurveto
          -4 hlineto
          -78 -51 -24 -86 -94 64 -19 91 44 44 7 8 30 hvcurveto
          69 vlineto
          -7 -33 -38 -5 -39 hhcurveto
          -60 -23 5 36 32 17 5 32 hvcurveto
          8 hlineto
          85 42 31 79 79 -42 30 -85 hvcurveto
          -135 hlineto
          -52 -15 18 33 hvcurveto
          2 vlineto
          33 14 19 52 vhcurveto
          212 152 107 72 -543 -72 351 -77 -125 hlineto
          -103 -48 -38 -84 hvcurveto
          -8 vlineto
          1 -46 18 -27 29 -13 rrcurveto
          -30 -14 -19 -26 -47 vvcurveto
          -229 vlineto
          -98 72 -55 123 59 43 7 11 30 vhcurveto
          69 vlineto
          -12 -38 -35 -5 -55 hhcurveto
          -77 -41 27 58 hvcurveto
          endchar
        </CharString>
        <CharString name="dvH_LA">
          612 867 472 rmoveto
          7 callgsubr
          -27 -236 vlineto
          54 callgsubr
          508 235 callgsubr
          -1072 -59 callgsubr
          230 -83 hlineto
          -81 callsubr
        </CharString>
        <CharString name="dvH_MA">
          245 501 186 rmoveto
          -119 16 hlineto
          77 -41 40 -93 vhcurveto
          -43 hlineto
          -52 -15 18 37 hvcurveto
          2 vlineto
          38 14 19 52 vhcurveto
          174 150 123 hlineto
          176 72 rmoveto
          -705 -72 322 -77 -90 hlineto
          -103 -48 -36 -88 hvcurveto
          -6 vlineto
          -50 17 -28 33 -16 vhcurveto
          -34 -15 -17 -28 -47 vvcurveto
          -78 294 callsubr
          86 vlineto
          34 19 19 53 vhcurveto
          32 hlineto
          51 9 -19 -34 hvcurveto
          -140 81 58 119 -134 84 604 92 vlineto
          endchar
        </CharString>
        <CharString name="dvH_NA">
          576 832 176 callsubr
          270 callgsubr
          -33 -242 vlineto
          54 callgsubr
          473 hlineto
          -189 -391 -103 callgsubr
          366 319 rmoveto
          -1037 -59 callgsubr
          236 -52 hlineto
          6 callsubr
        </CharString>
        <CharString name="dvH_NNA">
          645 696 254 -34 callgsubr
          -497 -266 rmoveto
          54 callgsubr
          116 -266 hlineto
          602 338 rmoveto
          -1105 -59 callgsubr
          270 hlineto
          -81 4 46 -48 103 hhcurveto
          107 46 52 87 hvcurveto
          329 119 -583 84 -16 callsubr
        </CharString>
        <CharString name="dvH_RA">
          67 386 436 rmoveto
          147 113 72 -527 -72 329 -76 -104 vlineto
          -102 -48 -35 -83 hvcurveto
          -11 vlineto
          -46 17 -30 33 -16 vhcurveto
          -34 -18 -17 -27 -47 vvcurveto
          -54 vlineto
          -99 54 -57 152 61 74 9 10 39 vhcurveto
          73 vlineto
          -9 -48 -59 -8 -63 hhcurveto
          -103 -23 32 52 hvcurveto
          53 285 callgsubr
          81 hlineto
          -107 -130 78 -5 97 119 rlineto
          7 -10 2 -13 -17 vvcurveto
          -34 77 39 vlineto
          82 -36 37 -93 vhcurveto
          -112 154 callsubr
          endchar
        </CharString>
        <CharString name="dvH_VA">
          418 676 -90 callgsubr
          -241 -104 rmoveto
          -236 166 callgsubr
          314 -89 hlineto
          190 callgsubr
          416 289 rmoveto
          -879 -59 callgsubr
          230 -40 hlineto
          -56 callsubr
        </CharString>
        <CharString name="dvH_YA">
          238 493 148 rmoveto
          -5 -17 -33 -5 -33 hhcurveto
          -34 hlineto
          8 12 4 17 22 vvcurveto
          17 vlineto
          77 -45 40 -102 vhcurveto
          -42 hlineto
          -51 -16 18 38 hvcurveto
          2 vlineto
          38 14 20 52 vhcurveto
          178 144 117 235 callgsubr
          -698 -72 319 -72 -93 hlineto
          -103 -48 -37 -88 hvcurveto
          -4 vlineto
          -51 18 -29 32 -15 vhcurveto
          -34 -18 -17 -28 -47 vvcurveto
          -80 294 callsubr
          87 vlineto
          36 17 22 57 vhcurveto
          34 hlineto
          59 8 -22 -37 hvcurveto
          -18 vlineto
          -30 -16 -9 -37 vhcurveto
          -75 152 vlineto
          38 34 5 5 16 hvcurveto
          -91 85 601 92 vlineto
          endchar
        </CharString>
        <CharString name="dvI">
          0 129 170 rmoveto
          -83 -240 83 96 hlineto
          -4 16 31 -4 36 hhcurveto
          113 44 45 88 hvcurveto
          36 vlineto
          87 -49 43 -107 vhcurveto
          -24 hlineto
          -53 -14 21 33 hvcurveto
          5 vlineto
          34 14 19 53 vhcurveto
          153 154 90 72 -460 -72 285 -79 -68 hlineto
          -102 -50 -40 -86 hvcurveto
          -8 vlineto
          -87 52 -40 100 vhcurveto
          24 hlineto
          57 14 -23 -35 hvcurveto
          -31 vlineto
          -39 -22 -21 -58 -32 -26 4 4 -17 vhcurveto
          endchar
        </CharString>
        <CharString name="dvII">
          0 342 429 rmoveto
          154 90 72 -95 vlineto
          -15 30 -15 40 28 vvcurveto
          47 31 12 38 13 14 -2 -1 7 vhcurveto
          75 vlineto
          2 -8 -17 3 -33 hhcurveto
          -66 -65 -29 -94 -41 17 -39 15 -31 31 callsubr
          endchar
        </CharString>
        <CharString name="dvII_Anusvara">
          1 410 910 rmoveto
          1 -8 -17 3 -27 hhcurveto
          -76 -66 -31 -98 -46 17 -49 20 -35 31 callsubr
          153 154 90 72 -95 hlineto
          -20 35 -16 49 33 vvcurveto
          51 34 18 42 12 14 -1 -1 7 vhcurveto
          -1 -48 239 callgsubr
        </CharString>
        <CharString name="dvJ">
          -56 420 -2 callgsubr
          -448 -72 448 hlineto
          -99 vmoveto
          -325 -77 107 -100 callsubr
          132 hlineto
          endchar
        </CharString>
        <CharString name="dvJA">
          159 297 347 73 callsubr
        </CharString>
        <CharString name="dvJH">
          6 215 12 rmoveto
          153 callgsubr
          149 69 -286 hlineto
          118 callsubr
          131 72 -515 -29 callsubr
          endchar
        </CharString>
        <CharString name="dvJHA">
          209 206 243 rmoveto
          90 callgsubr
          72 -669 -72 295 -78 -68 hlineto
          -102 261 callgsubr
          -87 276 callgsubr
          -2 74 rmoveto
          242 callgsubr
          -266 hlineto
          endchar
        </CharString>
        <CharString name="dvJH_MA">
          603 859 76 callgsubr
          -100 -42 -41 -76 -4 hvcurveto
          -252 hlineto
          118 callsubr
          307 212 callsubr
          372 293 rmoveto
          -1063 -29 callsubr
          153 callgsubr
          115 -59 hlineto
          19 callgsubr
        </CharString>
        <CharString name="dvJH_NA">
          605 860 176 callsubr
          270 callgsubr
          -33 -268 vlineto
          118 callsubr
          504 hlineto
          -189 -391 -103 callgsubr
          366 319 rmoveto
          -1065 -29 callsubr
          153 callgsubr
          131 -56 hlineto
          6 callsubr
        </CharString>
        <CharString name="dvJH_R">
          62 541 224 rmoveto
          -264 -310 rlineto
          97 hlineto
          91 102 35 42 35 48 6 17 rlinecurve
          -183 60 rmoveto
          29 -8 21 -16 15 vhcurveto
          207 69 -336 hlineto
          -50 -15 20 34 hvcurveto
          6 vlineto
          34 15 19 52 vhcurveto
          208 153 125 72 -568 -72 358 -78 -123 hlineto
          -102 261 callgsubr
          -88 53 -39 93 vhcurveto
          4 hlineto
          54 15 -24 -34 hvcurveto
          -38 vlineto
          -37 331 callgsubr
          -226 82 87 vlineto
          -5 18 25 -4 31 hhcurveto
          102 49 39 92 hvcurveto
          endchar
        </CharString>
        <CharString name="dvJH_RA">
          262 358 183 rmoveto
          29 -8 21 -16 15 vhcurveto
          172 -66 hlineto
          -229 -268 rlineto
          97 hlineto
          91 102 35 42 20 33 7 17 rlinecurve
          1 hlineto
          -4 -24 -1 -27 -24 vvcurveto
          -37 79 587 93 72 -723 -72 358 -78 -123 vlineto
          -102 261 callgsubr
          -88 54 -39 93 vhcurveto
          3 hlineto
          54 15 -24 -34 hvcurveto
          -36 vlineto
          -36 331 callgsubr
          -227 82 87 vlineto
          -5 18 25 -3 31 hhcurveto
          102 49 39 92 hvcurveto
          -151 285 rmoveto
          208 153 102 -266 -312 hlineto
          -50 1 -15 19 34 vvcurveto
          6 vlineto
          34 15 19 52 vhcurveto
          endchar
        </CharString>
        <CharString name="dvJH_YA">
          519 774 59 callgsubr
          -196 rmoveto
          -70 -263 vlineto
          118 callsubr
          226 102 callsubr
          -56 -25 -14 -79 vhcurveto
          466 268 rmoveto
          -980 -29 callsubr
          153 callgsubr
          126 hlineto
          -120 6 91 -43 110 -11 callsubr
        </CharString>
        <CharString name="dvJ_BA">
          395 490 326 -61 callsubr
          173 235 rmoveto
          -856 -72 683 305 callsubr
          -42 -35 -7 -14 -26 hvcurveto
          -373 -77 107 -100 callsubr
          125 hlineto
          -3 -13 -2 -15 -17 vvcurveto
          -159 vlineto
          45 callsubr
        </CharString>
        <CharString name="dvJ_DA">
          373 512 412 rmoveto
          0 vlineto
          7 11 16 4 24 hhcurveto
          148 308 callsubr
          -833 -72 654 -83 -63 hlineto
          -36 -29 -5 -9 -23 hvcurveto
          -380 -78 107 hlineto
          0 10 -21 -42 vvcurveto
          -153 -92 callgsubr
          159 vlineto
          41 -9 22 0 vhcurveto
          123 hlineto
          -3 -14 -2 -15 -17 vvcurveto
          -157 vlineto
          -89 53 -50 103 34 23 3 6 22 vhcurveto
          -31 callgsubr
          22 5 17 16 10 vhcurveto
          endchar
        </CharString>
        <CharString name="dvJ_DDA">
          359 692 332 callsubr
          -819 -72 635 -78 -62 vlineto
          -43 -33 -7 -14 -24 hvcurveto
          -350 -77 107 -100 callsubr
          108 hlineto
          -2 -10 -1 -11 -11 vvcurveto
          -60 callgsubr
          117 callsubr
        </CharString>
        <CharString name="dvJ_JA">
          512 944 -2 callgsubr
          -972 -72 795 -99 -672 -65 callgsubr
          126 -410 139 callgsubr
          hlineto
          endchar
        </CharString>
        <CharString name="dvJ_JHA">
          555 809 317 rmoveto
          -267 hlineto
          242 callgsubr
          235 callgsubr
          -1014 -72 640 -78 -68 hlineto
          -42 -33 -7 -14 -25 hvcurveto
          -349 -77 107 -100 callsubr
          107 hlineto
          -2 -10 -1 -11 -11 vvcurveto
          -8 vlineto
          -87 276 callgsubr
          7 hlineto
          90 callgsubr
          hlineto
          endchar
        </CharString>
        <CharString name="dvJ_J_NYA">
          582 95 407 rmoveto
          107 -100 callsubr
          132 74 -325 hlineto
          920 171 rmoveto
          -1043 -72 865 -99 -327 -74 95 callgsubr
          125 -410 -49 callgsubr
          93 hlineto
          endchar
        </CharString>
        <CharString name="dvJ_J_VA">
          743 1001 -90 callgsubr
          175 234 rmoveto
          -1204 -72 1026 0 callsubr
          -39 -31 -7 -14 -24 hvcurveto
          -724 -65 callgsubr
          124 hlineto
          -3 -13 -2 -15 -16 vvcurveto
          -162 vlineto
          -56 callsubr
        </CharString>
        <CharString name="dvJ_J_YA">
          820 1075 -102 callsubr
          178 72 rmoveto
          -1281 -72 911 102 callsubr
          -43 -15 -18 -42 -6 vhcurveto
          61 -4 -46 33 -93 hhcurveto
          -596 -65 callgsubr
          41 hlineto
          66 17 -10 -43 hvcurveto
          -97 107 callgsubr
          93 vlineto
          endchar
        </CharString>
        <CharString name="dvJ_KA">
          555 988 583 rmoveto
          72 -1016 -72 650 -437 vlineto
          -8 callgsubr
          -38 -30 -7 -13 -22 hvcurveto
          -367 -77 107 -100 callsubr
          123 hlineto
          -3 -12 -1 -13 -14 -57 callsubr
        </CharString>
        <CharString name="dvJ_MA">
          542 799 434 -9 callsubr
          372 293 rmoveto
          -1003 -72 631 199 callgsubr
          -18 -17 -1 -3 -14 hvcurveto
          35 -18 -46 19 -72 hhcurveto
          -259 -77 107 -100 callsubr
          52 hlineto
          40 25 -4 -14 13 hvcurveto
          -17 -21 -8 -28 -36 vvcurveto
          -118 vlineto
          19 callgsubr
        </CharString>
        <CharString name="dvJ_NA">
          548 614 192 -103 callgsubr
          366 319 rmoveto
          -1008 -72 831 -101 -249 hlineto
          -47 -35 -10 -21 -23 hvcurveto
          23 -24 -40 10 -47 hhcurveto
          -243 -77 107 -100 callsubr
          62 hlineto
          33 21 -8 -13 12 hvcurveto
          318 callsubr
          -158 vlineto
          6 callsubr
        </CharString>
        <CharString name="dvJ_NY">
          2 138 410 rmoveto
          95 callgsubr
          176 74 -378 hlineto
          -166 171 rmoveto
          -72 544 72 vlineto
          endchar
        </CharString>
        <CharString name="dvJ_NYA">
          210 -28 -2 callgsubr
          -72 493 -99 -327 -74 117 vlineto
          -22 callgsubr
          125 -410 240 callsubr
        </CharString>
        <CharString name="dvJ_NY_YA">
          514 769 241 rmoveto
          -53 -9 -28 -24 -71 hhcurveto
          -88 -30 35 70 hvcurveto
          69 vlineto
          79 1 46 37 81 vvcurveto
          63 333 callgsubr
          122 338 callsubr
          -975 -72 559 hlineto
          40 14 -23 -40 hvcurveto
          -51 vlineto
          -43 -14 -18 -42 -6 vhcurveto
          61 -4 -59 21 -77 hhcurveto
          -251 -74 95 callgsubr
          43 hlineto
          57 19 -8 -42 hvcurveto
          -100 vlineto
          -129 85 -46 114 57 34 13 18 20 vhcurveto
          -116 115 callsubr
        </CharString>
        <CharString name="dvJ_R">
          -37 153 -50 38 callgsubr
        </CharString>
        <CharString name="dvJ_RA">
          171 427 25 callgsubr
          endchar
        </CharString>
        <CharString name="dvJ_TA">
          404 837 -2 callgsubr
          -865 -72 687 292 callgsubr
          -390 -77 107 -100 callsubr
          133 hlineto
          -5 -16 -2 -17 -19 vvcurveto
          -227 vlineto
          -61 callgsubr
        </CharString>
        <CharString name="dvJ_TTA">
          362 700 421 221 callgsubr
          -818 -72 643 -84 -43 vlineto
          -34 -29 -5 -10 -23 hvcurveto
          -391 -77 107 -100 callsubr
          132 hlineto
          -5 -16 -2 -17 -20 vvcurveto
          -207 vlineto
          -58 callgsubr
        </CharString>
        <CharString name="dvJ_VA">
          391 648 -90 callgsubr
          175 234 rmoveto
          -851 -72 673 0 callsubr
          -39 -31 -7 -14 -24 hvcurveto
          -371 -77 107 -100 callsubr
          124 hlineto
          -3 -13 -2 -15 -16 vvcurveto
          -162 vlineto
          -56 callsubr
        </CharString>
        <CharString name="dvJ_YA">
          466 721 175 189 callgsubr
          1 46 37 81 vvcurveto
          63 257 callgsubr
          235 callgsubr
          -926 -72 557 306 callgsubr
          -43 -14 -18 -39 -6 vhcurveto
          60 -6 -56 22 -79 hhcurveto
          -247 -77 107 -100 callsubr
          40 hlineto
          59 24 -6 -44 hvcurveto
          -100 84 callgsubr
        </CharString>
        <CharString name="dvJx">
          -56 42 -68 rmoveto
          -29 109 callgsubr
          29 29 -12 22 -39 -38 -13 -22 -29 vhcurveto
          378 723 rmoveto
          -448 -72 448 hlineto
          -99 vmoveto
          -325 -77 107 -100 callsubr
          132 hlineto
          endchar
        </CharString>
        <CharString name="dvJxA">
          159 -5 -52 rmoveto
          -28 12 -22 38 39 126 callgsubr
          -39 310 callgsubr
          302 399 73 callsubr
        </CharString>
        <CharString name="dvJx_JxA">
          512 34 8 rmoveto
          179 callsubr
          232 callsubr
          -12 22 -38 hvcurveto
          358 hmoveto
          -38 -13 -22 -29 232 callsubr
          -11 22 -39 hvcurveto
          552 647 rmoveto
          -972 -72 795 -99 -672 -65 callgsubr
          126 -410 139 callgsubr
          hlineto
          endchar
        </CharString>
        <CharString name="dvJx_R">
          -17 3 4 rmoveto
          -18 callgsubr
          -39 310 callgsubr
          162 -54 38 callgsubr
        </CharString>
        <CharString name="dvJx_RA">
          182 438 25 callgsubr
          -305 -398 rmoveto
          -18 callgsubr
          -39 310 callgsubr
          endchar
        </CharString>
        <CharString name="dvJx_YA">
          466 34 3 35 callsubr
          687 172 189 callgsubr
          1 46 37 81 vvcurveto
          63 257 callgsubr
          235 callgsubr
          -926 -72 557 306 callgsubr
          -43 -14 -18 -39 -6 vhcurveto
          60 -6 -56 22 -79 hhcurveto
          -247 -77 246 callsubr
          -147 vlineto
          -44 -26 -26 -59 -34 -26 4 7 -28 vhcurveto
          -78 vlineto
          -7 26 24 -4 callgsubr
          51 95 hvcurveto
          153 286 callsubr
          40 hlineto
          59 24 -6 -44 hvcurveto
          -100 84 callgsubr
        </CharString>
        <CharString name="dvK">
          3 471 351 rmoveto
          78 19 hlineto
          81 -31 53 -109 109 callsubr
          vhcurveto
          87 248 72 -617 -72 285 -437 vlineto
          -105 callgsubr
          endchar
        </CharString>
        <CharString name="dvKA">
          191 257 146 rmoveto
          -4 -11 -24 -6 -27 hhcurveto
          -56 -15 25 37 hvcurveto
          171 vlineto
          36 15 25 56 7 9 -1 -1 5 vhcurveto
          73 vlineto
          2 -5 -12 1 -12 hhcurveto
          -99 -46 -47 -86 hvcurveto
          -52 callgsubr
          282 72 -651 -72 285 vlineto
          endchar
        </CharString>
        <CharString name="dvKH">
          136 125 256 -21 callgsubr
        </CharString>
        <CharString name="dvKHA">
          343 599 161 callsubr
          -803 -72 271 hlineto
          0 12 -22 -41 vvcurveto
          -121 vlineto
          -45 -18 -28 -56 -19 -20 2 3 -17 vhcurveto
          114 -82 -264 30 callsubr
        </CharString>
        <CharString name="dvKH_KHA">
          899 1156 184 callgsubr
          -691 -53 -26 callgsubr
          867 402 rmoveto
          -1360 -101 callgsubr
          475 -59 callsubr
          -55 -20 94 callsubr
          34 vlineto
          87 -41 47 -108 271 callgsubr
          vhcurveto
          -112 vlineto
          -92 38 -42 108 29 24 3 6 20 vhcurveto
          -89 21 79 -43 116 hhcurveto
          49 54 7 9 35 hvcurveto
          -54 callsubr
        </CharString>
        <CharString name="dvKH_MA">
          746 1002 313 callgsubr
          -392 171 callsubr
          22 35 vhcurveto
          114 vlineto
          35 9 22 54 vhcurveto
          64 hlineto
          -341 3 -26 callgsubr
          713 402 rmoveto
          -1206 -101 callgsubr
          481 199 callgsubr
          -28 -24 -3 -7 -19 hvcurveto
          49 -16 -42 26 -80 9 callsubr
          31 25 3 7 20 vhcurveto
          -45 17 41 -24 75 243 callsubr
        </CharString>
        <CharString name="dvKH_NA">
          736 802 192 -103 callgsubr
          -337 29 -26 callgsubr
          703 402 rmoveto
          -1196 -101 callgsubr
          666 -101 -249 hlineto
          -41 -31 -8 -15 -23 hvcurveto
          26 -20 -36 14 -58 9 callsubr
          31 25 4 9 20 vhcurveto
          -48 18 43 -26 72 hhcurveto
          98 43 47 87 hvcurveto
          -46 callgsubr
        </CharString>
        <CharString name="dvKH_R">
          137 105 callsubr
          352 72 -705 -44 callgsubr
          475 71 -34 callsubr
        </CharString>
        <CharString name="dvKH_RA">
          342 599 201 -31 callsubr
        </CharString>
        <CharString name="dvKH_SHA">
          744 105 callsubr
          216 72 -569 -72 271 hlineto
          0 12 -22 -41 vvcurveto
          -121 vlineto
          -45 -18 -28 -56 -19 -91 callsubr
          340 146 rmoveto
          37 12 24 56 55 12 -24 -37 vhcurveto
          -75 139 callsubr
          -11 -30 1 3 -33 vhcurveto
          0 vlineto
          87 -38 47 -108 271 callgsubr
          vhcurveto
          -75 134 callsubr
          101 vlineto
          -6 16 29 -6 123 callgsubr
        </CharString>
        <CharString name="dvKH_TA">
          586 465 365 -26 callgsubr
          553 402 rmoveto
          -1046 -101 callgsubr
          516 -93 hlineto
          5 -16 -29 6 -43 hhcurveto
          -49 -36 -12 -21 -25 hvcurveto
          20 -23 -36 11 -51 9 callsubr
          26 23 3 5 18 vhcurveto
          -81 1 35 -47 97 hhcurveto
          -70 callsubr
          92 vlineto
          endchar
        </CharString>
        <CharString name="dvKH_VA">
          584 841 -90 callgsubr
          -376 -56 -26 callgsubr
          551 402 rmoveto
          -1044 -101 callgsubr
          513 0 callsubr
          -53 -39 -14 -24 -25 hvcurveto
          20 -21 -33 12 -49 9 callsubr
          34 26 6 10 20 vhcurveto
          -46 21 45 -24 74 76 callsubr
        </CharString>
        <CharString name="dvKH_YA">
          655 910 175 rmoveto
          -6 -25 -34 -5 -41 hhcurveto
          -88 -38 -37 callgsubr
          32 11 19 22 vhcurveto
          -46 37 63 -18 72 -11 callsubr
        </CharString>
        <CharString name="dvKHx">
          137 39 -16 rmoveto
          -39 192 callsubr
          39 51 callsubr
          hvcurveto
          86 272 -21 callgsubr
        </CharString>
        <CharString name="dvKHxA">
          344 237 callgsubr
          561 217 -28 callgsubr
          24 -4 -3 14 vhcurveto
          176 237 rmoveto
          -805 -72 273 -59 callsubr
          -55 -20 -20 2 3 -17 vhcurveto
          114 -82 -264 30 callsubr
        </CharString>
        <CharString name="dvKHx_MA">
          750 87 callgsubr
          966 450 -9 callsubr
          -345 3 -26 callgsubr
          717 402 rmoveto
          -1210 -101 callgsubr
          485 199 callgsubr
          -30 -25 -4 -7 -20 hvcurveto
          50 -16 -41 26 -81 9 callsubr
          31 25 3 8 21 vhcurveto
          -46 17 43 -24 76 hhcurveto
          134 callgsubr
          hvcurveto
          30 callgsubr
        </CharString>
        <CharString name="dvKHx_R">
          136 105 callsubr
          352 72 -705 -44 callgsubr
          400 -151 rmoveto
          -39 -12 -22 -29 -18 callgsubr
          hvcurveto
          75 222 -34 callsubr
        </CharString>
        <CharString name="dvKHx_RA">
          348 488 2 rmoveto
          -39 -12 -22 -29 -18 callgsubr
          hvcurveto
          111 199 -31 callsubr
        </CharString>
</ttFont>
